<svg width="173" height="142" viewBox="0 0 173 142" fill="none" xmlns="http://www.w3.org/2000/svg">
<path d="M0 0H173V46C173 99.0193 130.019 142 77 142H72C32.2355 142 0 109.765 0 70V0Z" fill="white"/>
<path d="M81.0928 23.8969C71.2427 23.8969 63.2576 31.8905 63.2576 41.7512V73.1572H98.928V41.7512C98.928 31.8905 90.9429 23.8969 81.0928 23.8969Z" fill="#C2EBFB"/>
<path d="M87.4122 42.1012C88.9442 41.4763 90.6701 42.1673 92.2926 41.8546C92.943 41.7291 93.5783 41.4971 94.1419 41.1462C94.6166 40.8511 94.9097 40.5052 95.4882 40.484C95.5983 40.4798 97.6099 40.3119 97.3761 39.8679C97.548 40.1942 97.7719 41.4826 97.7719 41.4826C97.8649 41.9648 97.7349 42.3153 97.5663 42.5984C97.3985 42.8819 97.0414 42.6196 97.0414 42.6196C96.9841 42.7526 97.1589 42.9168 97.1606 42.9642C97.1627 43.012 96.9529 43.1326 96.9529 43.1326C96.6344 43.1949 96.4853 42.8927 96.4853 42.8927C96.4641 43.0453 96.5501 43.2082 96.7316 43.3059C96.9135 43.4036 96.8724 43.4984 96.8724 43.4984C96.6166 43.6992 96.2166 43.3558 96.2166 43.3558C96.296 43.5857 96.7964 43.7495 97.0294 43.7815C97.2619 43.8131 97.4023 43.7483 97.2723 43.9703C97.1419 44.1923 96.6465 44.1711 96.6465 44.1711C96.83 44.3166 97.3122 44.2135 97.3122 44.2135C97.4326 44.3486 97.9326 43.9985 97.9326 43.9985C98.4758 43.73 98.3367 43.5849 98.5991 43.1887C98.8612 42.7925 98.9808 41.5137 98.9808 41.5137C99.0015 40.9758 99.3678 38.8714 99.3678 38.8714C100.943 38.422 101.089 37.2625 101.593 36.2839C102.097 35.3053 102.051 34.8717 102.051 34.8717C102.49 34.944 103.325 34.6226 103.728 34.547C104.131 34.4717 104.684 34.4888 104.99 34.4314C105.295 34.3732 105.21 34.0011 105.21 34.0011C105.674 33.8885 105.424 33.3805 105.424 33.3805C105.335 32.865 103.703 32.3378 103.609 32.1936C103.515 32.0493 103.194 31.6785 102.746 31.496C102.299 31.3139 101.645 31.0906 101.645 31.0906L101.61 31.1185C101.61 31.1185 101.366 29.7724 100.729 29.3828C100.091 28.9933 100.057 29.5354 100.057 29.5354C99.3171 29.663 99.6793 30.4537 99.84 30.8325C100 31.2108 100.156 31.9603 100.156 31.9603C99.7823 32.717 99.8902 33.8847 99.1083 34.1882C98.3259 34.4917 96.9135 33.8078 94.9538 33.0167C92.994 32.2256 90.7528 32.3515 89.0447 32.9922C87.1942 33.6856 86.0708 35.3556 84.9176 36.8497C83.5758 38.5879 82.0584 40.2092 80.2756 41.5008C77.967 43.1741 75.1721 44.2754 72.3233 44.2072C71.6256 44.1906 70.9973 44.0651 70.364 43.7736C69.9902 43.6019 69.7369 43.3251 69.5106 42.9896C69.4051 42.8333 68.967 42.0247 68.7635 42.5726C68.7319 42.6574 68.7336 42.7509 68.7386 42.8416C68.7759 43.4851 68.9533 43.8892 69.4009 44.3369C71.124 46.0601 73.8906 45.8211 76.0625 45.3563C78.5758 44.8183 81.016 43.7952 83.0829 42.2541C83.6111 41.86 84.114 41.4318 84.5833 40.9695C84.9475 40.6108 85.3458 40.0421 85.8732 39.9186C86.1601 39.8512 86.3159 40.3439 86.5958 41.3233C86.8752 42.3032 87.4122 42.1012 87.4122 42.1012Z" fill="#F46B90"/>
<path d="M88.0374 45.9519C88.3339 46.4433 89.5129 46.9958 90.2098 47.3371C90.9062 47.678 92.1259 48.5942 92.1259 48.5942C92.123 48.9285 92.4963 49.2199 92.9482 49.3413C93.3996 49.4627 93.5997 49.5928 93.5997 49.5928L93.5499 49.3513C93.5499 49.3513 93.5794 49.4111 94.1325 49.6356C94.6853 49.8601 95.0179 49.7728 95.0179 49.7728C95.0179 49.7728 94.8813 49.8684 95.2065 49.9794C95.5321 50.0896 95.7542 50.0364 95.9494 50.0297C96.145 50.0231 96.4141 50.1204 96.4141 50.1204L96.2372 49.853C96.4768 49.9058 97.0125 50.0397 97.0125 50.0397C96.9025 49.6789 96.5873 49.4614 95.9382 49.2856C95.2891 49.1101 94.5707 48.5418 94.3846 48.4113C93.6832 47.9195 92.9988 47.4011 92.3074 46.8952C92.0316 46.6935 91.6766 46.5048 91.4382 46.2587C91.2696 46.0849 91.1948 45.8654 90.9934 45.7033C90.7521 45.5087 90.454 45.3911 90.2251 45.1799C90.1118 45.0755 90.0142 44.9587 89.9627 44.8115C89.7642 44.2436 91.0121 43.9269 91.4025 43.8641C91.9303 43.7797 92.4311 43.9107 92.9444 43.7784C93.5237 43.6296 94.0682 43.344 94.5163 42.9474C95.1288 42.4049 95.5582 41.6587 95.7193 40.8559C95.829 40.3088 95.7833 39.6644 95.3589 39.3032C95.0445 39.0354 94.6035 38.9905 94.1923 38.9573C93.65 38.9136 93.0823 38.9103 92.5619 38.7731C92.0038 38.6259 91.4357 38.5798 90.8601 38.5798C89.7629 38.6101 88.6512 38.9818 87.8593 39.7422C87.5719 40.0178 87.3165 40.3861 87.3655 40.7811C87.4116 41.1552 87.7127 41.4379 87.8966 41.7663C88.113 42.1521 88.1687 42.6115 88.1321 43.0526C88.0848 43.6255 87.8659 44.1389 87.8775 44.713C87.8846 45.0818 87.8377 45.6205 88.0374 45.9519Z" fill="#F46B90"/>
<path d="M37.38 96.5388C37.4223 96.3052 37.4576 95.9826 37.4863 95.5718C37.4863 95.3166 37.5075 95.0405 37.5498 94.7429C37.7334 93.3967 38.137 91.4773 38.76 88.9838L39.3119 86.7098C39.9913 83.7631 40.4016 80.8726 40.5432 78.039L40.9676 77.5925C41.4631 77.437 41.8734 77.3588 42.1989 77.3588C42.5386 77.3588 42.8219 77.4474 43.0482 77.6245C43.2745 77.802 43.4514 78.0889 43.5789 78.4855C43.7629 80.143 43.9963 81.8998 44.2795 83.7556C44.5623 85.6118 44.9377 87.9212 45.4049 90.6837C45.9423 93.8574 46.3032 96.0607 46.4872 97.2933C46.7845 97.2933 47.0287 97.3428 47.2197 97.4422C47.4108 97.5411 47.6051 97.7818 47.8036 98.1647C47.8036 98.2208 47.775 98.299 47.7189 98.3983C47.662 98.4973 47.5416 98.5684 47.3576 98.6108C47.1595 98.6536 46.9544 98.6748 46.7421 98.6748C46.3883 98.6748 45.978 98.6391 45.5108 98.5684C44.8028 98.4832 44.272 98.4478 43.9186 98.462C43.5789 98.462 43.2816 98.5114 43.027 98.6108C42.9136 98.3842 42.8572 98.1647 42.8572 97.9519C42.8572 97.7394 42.9103 97.5515 43.0162 97.389C43.1225 97.226 43.2745 97.0597 43.4726 96.8897C43.1894 95.6849 42.995 94.5375 42.8891 93.4466C42.7828 92.3558 42.6944 91.0101 42.6238 89.4087C42.5386 87.2976 42.4253 85.6759 42.2841 84.5422C42.1566 84.2445 42.0324 84.0288 41.9124 83.8936C41.792 83.7594 41.6258 83.692 41.4136 83.692C41.2861 84.6981 41.1196 85.6825 40.9145 86.6462C40.7093 87.6098 40.4298 88.7709 40.076 90.1312C39.6653 91.775 39.3542 93.0995 39.142 94.1051C38.9298 95.1112 38.7737 96.1738 38.6748 97.2933C38.8447 97.2933 38.9934 97.3711 39.1209 97.527C39.2621 97.6683 39.4037 97.7394 39.5453 97.7394V98.1647C39.5453 98.2354 39.5204 98.3273 39.4709 98.4408C39.4215 98.5542 39.3044 98.6108 39.1209 98.6108C38.8941 98.6108 38.5403 98.5966 38.0594 98.5684L37.0826 98.5472C36.7712 98.5472 36.4884 98.5684 36.2334 98.6108C36.2052 98.5542 36.1595 98.4408 36.0955 98.2707C36.032 98.1007 36 97.9236 36 97.7394C36 97.527 36.0669 97.3994 36.2018 97.357C36.336 97.3145 36.637 97.2933 37.1038 97.2933C37.2454 97.024 37.3376 96.7724 37.38 96.5388Z" fill="#2C8579"/>
<path d="M53.3103 80.1854C53.3103 80.5679 53.3456 80.9932 53.4162 81.4604C53.4304 81.5598 53.4515 81.7619 53.4802 82.0662C53.5084 82.3709 53.5155 82.6436 53.5014 82.8843C53.4727 83.749 53.4162 85.1301 53.3315 87.0287C53.2605 88.6438 53.197 90.3225 53.1405 92.0652C53.0836 93.8079 53.0553 95.4089 53.0553 96.8685C53.197 97.0099 53.4233 97.1583 53.7348 97.3146C54.018 97.456 54.2231 97.5906 54.3506 97.7183C54.3506 97.8459 54.322 97.9415 54.2655 98.0051C54.209 98.0691 54.1098 98.1502 53.9686 98.2496C53.7987 98.3485 53.6426 98.4691 53.5014 98.6108C53.3456 98.5398 53.0769 98.4761 52.6945 98.4196C52.4964 98.4055 52.1637 98.3984 51.697 98.3984C51.2156 98.3984 50.8157 98.3843 50.4976 98.356C50.1791 98.3273 49.871 98.2637 49.574 98.1648C49.5454 98.1502 49.5068 98.1007 49.4573 98.0159C49.4075 97.9307 49.383 97.8318 49.383 97.7183C49.383 97.5624 49.4465 97.4277 49.574 97.3146C49.574 97.2152 49.5952 97.155 49.6376 97.1342C49.6799 97.1126 49.7505 97.1022 49.8498 97.1022C49.9773 97.1022 50.069 97.0947 50.1259 97.081C50.2671 97.024 50.3664 96.9533 50.4233 96.8685C50.5504 96.7409 50.6143 96.5563 50.6143 96.3156C50.6143 96.2021 50.5998 96.0712 50.5715 95.9228C50.5433 95.7739 50.5221 95.6708 50.508 95.6143C50.4511 95.3594 50.4233 95.1965 50.4233 95.1258C50.4233 94.6864 50.437 94.042 50.4656 93.1918L50.4868 91.3215C50.4727 91.2508 50.4582 91.1194 50.4445 90.9282C50.4299 90.737 50.4233 90.5283 50.4233 90.3013V86.3698V78.9528C50.1542 78.9528 49.9453 78.9283 49.7966 78.8784C49.6484 78.8289 49.574 78.705 49.574 78.5063V77.6353C49.574 77.5077 49.6234 77.4441 49.7223 77.4441C49.7651 77.4441 49.9063 77.4757 50.1471 77.5397C50.3876 77.6033 50.628 77.6353 50.8689 77.6353C51.0246 77.6353 51.3573 77.6071 51.8668 77.5501C51.9798 77.5364 52.1849 77.5148 52.4823 77.4865C52.7796 77.4582 53.0412 77.4441 53.268 77.4441C53.7489 77.4441 54.1098 77.5077 54.3506 77.6353C54.4636 77.7488 54.5205 77.8902 54.5205 78.0602C54.5205 78.2872 54.425 78.4926 54.2339 78.6763C54.0429 78.8609 53.7987 78.9528 53.5014 78.9528C53.3739 79.2928 53.3103 79.704 53.3103 80.1854Z" fill="#2C8579"/>
<path d="M65.7549 87.2091C65.8679 86.6778 65.9634 86.1822 66.0414 85.7216C66.1191 85.2614 66.1723 84.96 66.2005 84.8182C66.2715 84.4499 66.3986 83.9331 66.583 83.2671L66.9862 81.6728L67.1772 80.9715C67.2902 80.5325 67.3753 80.1854 67.4318 79.9305C67.4883 79.6753 67.5169 79.4063 67.5169 79.1228C67.5169 78.6979 67.7005 78.3046 68.0689 77.9433C68.4368 77.5821 68.84 77.4012 69.279 77.4012H71.8903C72.0174 77.4012 72.1129 77.4332 72.1768 77.4969C72.2404 77.5609 72.3218 77.6636 72.421 77.8049C72.5622 78.0178 72.6827 78.1737 72.7819 78.2726C72.5834 78.4713 72.4028 78.6235 72.2404 78.7295C72.0776 78.8359 71.8903 78.8891 71.6781 78.8891C71.4655 78.8891 71.2462 78.8326 71.0199 78.7191C70.8924 79.0874 70.8288 79.484 70.8288 79.9089C70.8288 80.1359 70.8571 80.4901 70.9136 80.9715C70.9842 81.3968 71.0199 81.8079 71.0199 82.2041V83.9681V86.1573V89.6639L70.9987 90.9178C70.9841 91.1161 70.9775 91.4062 70.9775 91.7887C70.9775 92.1999 70.9912 92.5117 71.0199 92.7241C71.0763 93.2483 71.1046 93.8004 71.1046 94.3816C71.1046 94.7499 71.0905 95.2318 71.0622 95.8267C71.0336 96.422 71.0199 96.8469 71.0199 97.1021C71.4866 97.1021 71.904 97.2223 72.2724 97.4634C72.6403 97.7041 72.8243 97.9519 72.8243 98.2071C72.8243 98.4054 72.718 98.5542 72.5058 98.6536C72.3218 98.6536 72.166 98.632 72.039 98.5896C72.0103 98.5896 71.9538 98.5792 71.8691 98.5576C71.784 98.5364 71.6847 98.526 71.5718 98.526C71.5149 98.526 71.3596 98.5472 71.1046 98.5896C70.9347 98.6461 70.7719 98.6748 70.6162 98.6748L69.8521 98.526C69.9372 98.4832 69.8944 98.4761 69.725 98.5048C69.5547 98.533 69.3567 98.5646 69.1303 98.6004C68.904 98.6353 68.6561 98.6536 68.3874 98.6536C68.3874 98.5542 68.3695 98.4832 68.3342 98.4408C68.2989 98.3983 68.2283 98.3485 68.122 98.2919C68.0157 98.2354 67.9625 98.136 67.9625 97.9947C67.9625 97.8812 68.0086 97.7926 68.1008 97.729C68.1926 97.665 68.345 97.5906 68.5572 97.5058C68.9252 97.3499 69.1656 97.2152 69.279 97.1021C69.0805 95.7701 68.9817 94.155 68.9817 92.2564C68.9817 91.6615 68.9958 90.6983 69.024 89.3663C69.0522 88.403 69.0668 87.6734 69.0668 87.1775C69.0668 87.007 69.095 86.6108 69.1515 85.9872C69.2366 85.2788 69.279 84.7546 69.279 84.4145V82.6506C69.279 82.4947 69.2753 82.3779 69.2682 82.2997C69.2611 82.222 69.208 82.0628 69.1091 81.8217L69.1303 81.418C69.1303 81.2621 69.0311 81.0854 68.833 80.8867C68.833 80.9008 68.84 80.9399 68.8546 81.0035C68.8683 81.0671 68.8758 81.149 68.8758 81.248C68.8758 81.4604 68.84 81.6379 68.7694 81.7793C68.6278 82.1335 68.4829 82.5974 68.3342 83.1711C68.1856 83.7452 68.0477 84.3297 67.9202 84.9246C67.7503 85.6613 67.6158 86.2138 67.5169 86.5821C67.4883 86.6815 67.4285 86.8835 67.3367 87.1879C67.2441 87.4926 67.1772 87.737 67.1349 87.9212L66.8375 89.5151C66.5967 90.7195 66.4414 91.4844 66.3703 91.8103C66.328 91.9945 66.2782 92.3416 66.2221 92.8513C66.1652 93.3897 66.1054 93.7975 66.0414 94.0735C65.9779 94.3496 65.8824 94.488 65.7549 94.488C65.5709 94.488 65.3517 94.4099 65.0967 94.2544C64.8134 94.1122 64.6087 94.0419 64.4812 94.0419C64.4812 93.7297 64.4563 93.45 64.4069 93.2022C64.3571 92.9544 64.2757 92.6534 64.1627 92.2988L64.0352 91.8527L63.6743 90.5349C63.6033 90.2942 63.4974 89.9154 63.3558 89.3983C63.2142 88.8811 63.0801 88.4172 62.9526 88.006C62.627 86.958 62.3296 86.0795 62.0609 85.3707C62.0186 85.2576 61.9688 85.1051 61.9123 84.9138C61.8558 84.7226 61.7848 84.5492 61.7001 84.3933C61.6149 84.2374 61.509 84.0957 61.3815 83.9681V87.0286C61.3815 87.3828 61.318 87.9565 61.1905 88.7497C61.0348 89.8123 60.9571 90.5494 60.9571 90.9602V93.1702V97.1021C61.2399 97.1021 61.4559 97.1266 61.6046 97.1765C61.7532 97.226 61.8276 97.3499 61.8276 97.5482C61.8276 97.9024 61.6291 98.1464 61.2329 98.2815C60.8367 98.4158 60.3201 98.4832 59.6834 98.4832C59.372 98.4832 58.9754 98.469 58.4945 98.4408L57.9002 98.4195C57.7727 98.4195 57.6772 98.388 57.6133 98.3239C57.5497 98.2603 57.4683 98.1572 57.3691 98.0159C57.2275 97.8034 57.107 97.6471 57.0082 97.5482C57.107 97.4488 57.1959 97.3428 57.2736 97.2293C57.3512 97.1158 57.4256 97.0348 57.4966 96.9853C57.5672 96.9354 57.6523 96.9109 57.7515 96.9109C57.8927 96.9109 58.0913 96.9745 58.3458 97.1021V92.7241V87.0286V86.1573V81.7793V78.7191C58.1901 78.7191 58.0518 78.744 57.9318 78.7935C57.8114 78.843 57.6876 78.8679 57.5605 78.8679C57.4754 78.8679 57.3869 78.8571 57.2952 78.8359C57.203 78.8147 57.1357 78.8039 57.0933 78.8039C56.8948 78.7474 56.725 78.7191 56.5838 78.7191C56.3574 78.4925 56.2262 78.3258 56.1909 78.2194C56.1556 78.1134 56.1378 77.8407 56.1378 77.4012C56.5202 77.274 56.9658 77.21 57.4754 77.21C58.5082 77.21 59.6689 77.4158 60.9571 77.8265C61.1835 78.3083 61.3849 78.7191 61.5622 79.0587C61.7391 79.3992 61.884 79.6827 61.9974 79.9089C62.0398 79.9659 62.1315 80.143 62.2732 80.4402V80.8867C62.5846 81.5103 62.8708 82.1867 63.1332 82.9163C63.3948 83.6463 63.6814 84.5139 63.9928 85.5195L64.3749 86.7098C64.4879 87.0498 64.5979 87.3367 64.7038 87.5703C64.8101 87.8044 64.9268 88.0347 65.0543 88.2613L65.3305 88.7926C65.5003 88.2683 65.6415 87.7404 65.7549 87.2091Z" fill="#2C8579"/>
<path d="M85.4472 93.8929C85.4472 94.6296 85.4717 95.3131 85.5215 95.9437C85.571 96.574 85.6877 97.0732 85.872 97.442C85.872 97.5551 85.9638 97.6295 86.1478 97.6652C86.3318 97.7006 86.4767 97.7534 86.583 97.8245C86.6893 97.8951 86.7421 98.051 86.7421 98.2921C86.2612 98.4476 85.6594 98.5258 84.9376 98.5258C84.5269 98.5258 83.9256 98.4834 83.1332 98.3982C82.2557 98.3134 81.6046 98.2776 81.1802 98.2921C81.1802 98.1504 81.2084 97.9733 81.2649 97.7609C81.3214 97.5484 81.4418 97.442 81.6258 97.442H82.0294C82.2275 95.9258 82.3513 94.265 82.4007 92.4583C82.4501 90.6519 82.475 88.424 82.475 85.7746V81.503C82.475 81.0782 82.5103 80.6674 82.5813 80.2704C82.595 80.1573 82.6096 80.0259 82.6237 79.8771C82.6378 79.7283 82.6449 79.5691 82.6449 79.399C82.6449 79.059 82.5884 78.7688 82.475 78.5277H78.6328C78.6328 79.8173 78.5618 81.7512 78.4202 84.3296C78.2786 87.0497 78.208 89.0975 78.208 90.4715V94.7431L78.1868 96.507C78.1868 96.6908 78.2292 96.8363 78.3143 96.9427C78.399 97.0487 78.519 97.1585 78.6752 97.272C78.8164 97.3709 78.9227 97.4665 78.9937 97.5588C79.0643 97.6507 79.0996 97.7609 79.0996 97.8885L79.0572 98.1433C79.0003 98.2992 78.8027 98.416 78.463 98.4938C78.1233 98.5715 77.7055 98.6106 77.2105 98.6106C76.4459 98.6106 75.7806 98.5541 75.2146 98.441C75.0165 98.3982 74.8994 98.3308 74.8645 98.2389C74.8288 98.1466 74.8114 97.9804 74.8114 97.7396C74.8114 97.612 74.8396 97.5164 74.8961 97.4528C74.9526 97.3888 75.0589 97.3073 75.2146 97.2083C75.2429 97.1797 75.3064 97.1373 75.4056 97.0807C75.5045 97.0238 75.5896 96.9602 75.6606 96.8895V92.1714V90.9176V86.646V85.3497C75.6606 84.9245 75.6889 84.2019 75.7453 83.1817C75.8018 82.0767 75.8305 81.227 75.8305 80.6317C75.8305 79.6826 75.7736 78.8324 75.6606 78.0816C75.2923 78.0816 74.9845 78.0571 74.737 78.0072C74.4891 77.9577 74.3654 77.8475 74.3654 77.6775C74.5634 77.3092 74.9526 77.125 75.5331 77.125C75.7736 77.125 76.0215 77.1462 76.2761 77.189C76.5871 77.2173 76.7997 77.2314 76.9131 77.2314H78.208H85.872C86.1831 77.2314 86.3388 77.3732 86.3388 77.6563C86.3388 77.8687 86.2541 78.0675 86.0842 78.2516C85.9144 78.4358 85.7022 78.5277 85.4472 78.5277V93.8929Z" fill="#2C8579"/>
<path d="M96.3099 94.488C96.5433 93.7654 96.7165 93.1564 96.8303 92.6604C97.0138 92.0797 97.1305 91.4989 97.1804 90.9177C97.2298 90.3369 97.2547 89.6144 97.2547 88.7501C97.2547 88.4525 97.2829 88.0771 97.3394 87.6235C97.3394 87.5387 97.3502 87.3865 97.3714 87.1666C97.3926 86.9471 97.4034 86.7384 97.4034 86.5397C97.4034 86.3414 97.3959 86.1115 97.3822 85.8492C97.3677 85.5869 97.3535 85.3852 97.3394 85.2435C97.2829 84.6768 97.2547 84.252 97.2547 83.9684C97.1131 83.6849 96.9715 83.26 96.8303 82.693C96.6883 82.0981 96.54 81.6516 96.3843 81.3543L96.1509 80.8442C95.8959 80.2917 95.6696 79.8594 95.4715 79.548C95.273 79.2362 95.0184 79.0026 94.7069 78.8467C94.4237 78.8467 94.1409 78.8325 93.8581 78.8039C93.5466 78.776 93.2422 78.7615 92.9449 78.7615C92.5205 79.1863 92.1808 79.6295 91.9262 80.0897C91.6712 80.5503 91.4304 81.1136 91.2044 81.7792C91.0059 82.1617 90.8822 82.5479 90.8328 82.9374C90.7829 83.3274 90.7584 83.8125 90.7584 84.3933C90.6451 85.3 90.5886 86.3061 90.5886 87.4111C90.5886 89.4086 90.7937 91.5837 91.2044 93.9355C91.3033 94.1338 91.3847 94.3462 91.4482 94.5728C91.5122 94.7994 91.5578 94.9482 91.5865 95.0193C91.6712 95.3169 91.7456 95.5468 91.8095 95.7098C91.873 95.8728 91.9611 96.0108 92.0745 96.1243C92.1878 96.1243 92.2622 96.1459 92.2975 96.1883C92.3328 96.2307 92.3647 96.3226 92.393 96.4643C92.4212 96.6057 92.4781 96.7196 92.5628 96.8044C92.7892 97.031 93.1575 97.1445 93.6671 97.1445C94.1052 97.1445 94.5267 97.063 94.9299 96.9C95.3332 96.7371 95.5844 96.5284 95.6837 96.2731C95.8672 95.8058 96.0765 95.2105 96.3099 94.488ZM97.0209 97.3145C96.7946 97.5552 96.5824 97.7394 96.3843 97.867C95.5633 98.3912 94.6928 98.6536 93.773 98.6536C92.8527 98.6536 92.0005 98.4091 91.2148 97.9202C90.4295 97.4313 89.8456 96.8327 89.4636 96.1243C88.9399 95.1324 88.5009 94.1126 88.1471 93.0641C87.9631 92.3133 87.8465 91.5521 87.797 90.7797C87.7472 90.0073 87.7227 89.0407 87.7227 87.8788C87.7227 87.6946 87.7086 87.4323 87.6803 87.0922C87.6517 86.7239 87.6376 86.4478 87.6376 86.2632C87.6376 85.9377 87.6658 85.6047 87.7227 85.2647C87.7364 85.1794 87.7792 84.9458 87.8502 84.5633C87.9208 84.1809 87.9561 83.862 87.9561 83.6067C87.9843 83.4654 88.0337 83.196 88.1048 82.7994C88.1612 82.4169 88.2215 82.1122 88.2854 81.8856C88.3489 81.6591 88.4515 81.4816 88.5931 81.3543C88.7484 81.1419 88.9823 80.7948 89.2937 80.3129C89.7181 79.6615 90.0823 79.1514 90.3867 78.7827C90.6911 78.4143 91.0732 78.0955 91.5333 77.8265C91.9931 77.5575 92.5346 77.4228 93.1575 77.4228C93.4403 77.4228 93.6596 77.4369 93.8153 77.4652C94.6646 77.4652 95.3402 77.5924 95.8427 77.8477C96.3452 78.1025 96.8158 78.5565 97.2547 79.2079C97.9196 79.647 98.4823 80.3271 98.9424 81.2479C99.4021 82.1692 99.6816 83.1819 99.7809 84.2869C99.8374 84.8681 99.866 85.633 99.866 86.5821V87.5171C99.866 88.9626 99.7456 90.1881 99.5051 91.1938C99.0803 93.2059 98.4362 94.9981 97.5732 96.5708C97.4316 96.8256 97.2472 97.0734 97.0209 97.3145Z" fill="#2C8579"/>
<path d="M111.767 93.8929C111.767 94.6296 111.791 95.3131 111.841 95.9437C111.891 96.574 112.007 97.0732 112.191 97.442C112.191 97.5551 112.284 97.6295 112.468 97.6652C112.651 97.7006 112.796 97.7534 112.903 97.8245C113.009 97.8951 113.062 98.051 113.062 98.2921C112.581 98.4476 111.979 98.5258 111.257 98.5258C110.847 98.5258 110.245 98.4834 109.453 98.3982C108.576 98.3134 107.924 98.2776 107.5 98.2921C107.5 98.1504 107.528 97.9733 107.585 97.7609C107.641 97.5484 107.762 97.442 107.946 97.442H108.349C108.547 95.9258 108.671 94.265 108.72 92.4583C108.77 90.6519 108.795 88.424 108.795 85.7746V81.503C108.795 81.0782 108.83 80.6674 108.901 80.2704C108.915 80.1573 108.929 80.0259 108.943 79.8771C108.958 79.7283 108.965 79.5691 108.965 79.399C108.965 79.059 108.908 78.7688 108.795 78.5277H104.953C104.953 79.8173 104.882 81.7512 104.74 84.3296C104.598 87.0497 104.528 89.0975 104.528 90.4715V94.7431L104.507 96.507C104.507 96.6908 104.549 96.8363 104.634 96.9427C104.719 97.0487 104.839 97.1585 104.995 97.272C105.136 97.3709 105.242 97.4665 105.313 97.5588C105.384 97.6507 105.419 97.7609 105.419 97.8885L105.377 98.1433C105.32 98.2992 105.122 98.416 104.783 98.4938C104.443 98.5715 104.025 98.6106 103.53 98.6106C102.766 98.6106 102.1 98.5541 101.534 98.441C101.336 98.3982 101.219 98.3308 101.184 98.2389C101.149 98.1466 101.131 97.9804 101.131 97.7396C101.131 97.612 101.159 97.5164 101.216 97.4528C101.272 97.3888 101.379 97.3073 101.534 97.2083C101.563 97.1797 101.626 97.1373 101.725 97.0807C101.824 97.0238 101.909 96.9602 101.98 96.8895V92.1714V90.9176V86.646V85.3497C101.98 84.9245 102.009 84.2019 102.065 83.1817C102.122 82.0767 102.15 81.227 102.15 80.6317C102.15 79.6826 102.093 78.8324 101.98 78.0816C101.612 78.0816 101.304 78.0571 101.057 78.0072C100.809 77.9577 100.685 77.8475 100.685 77.6775C100.883 77.3092 101.272 77.125 101.853 77.125C102.093 77.125 102.341 77.1462 102.596 77.189C102.907 77.2173 103.12 77.2314 103.233 77.2314H104.528H112.191C112.503 77.2314 112.659 77.3732 112.659 77.6563C112.659 77.8687 112.574 78.0675 112.404 78.2516C112.234 78.4358 112.022 78.5277 111.767 78.5277V93.8929Z" fill="#2C8579"/>
<path d="M122.63 94.488C122.863 93.7654 123.036 93.1564 123.15 92.6604C123.334 92.0797 123.45 91.4989 123.5 90.9177C123.55 90.3369 123.575 89.6144 123.575 88.7501C123.575 88.4525 123.603 88.0771 123.659 87.6235C123.659 87.5387 123.67 87.3865 123.691 87.1666C123.712 86.9471 123.723 86.7384 123.723 86.5397C123.723 86.3414 123.716 86.1115 123.702 85.8492C123.688 85.5869 123.673 85.3852 123.659 85.2435C123.603 84.6768 123.575 84.252 123.575 83.9684C123.433 83.6849 123.291 83.26 123.15 82.693C123.008 82.0981 122.86 81.6516 122.704 81.3543L122.471 80.8442C122.216 80.2917 121.989 79.8594 121.791 79.548C121.593 79.2362 121.338 79.0026 121.027 78.8467C120.744 78.8467 120.461 78.8325 120.178 78.8039C119.867 78.776 119.562 78.7615 119.265 78.7615C118.84 79.1863 118.501 79.6295 118.246 80.0897C117.991 80.5503 117.75 81.1136 117.524 81.7792C117.326 82.1617 117.202 82.5479 117.153 82.9374C117.103 83.3274 117.078 83.8125 117.078 84.3933C116.965 85.3 116.908 86.3061 116.908 87.4111C116.908 89.4086 117.114 91.5837 117.524 93.9355C117.623 94.1338 117.705 94.3462 117.769 94.5728C117.832 94.7994 117.878 94.9482 117.906 95.0193C117.991 95.3169 118.065 95.5468 118.129 95.7098C118.193 95.8728 118.281 96.0108 118.395 96.1243C118.508 96.1243 118.582 96.1459 118.617 96.1883C118.653 96.2307 118.685 96.3226 118.713 96.4643C118.741 96.6057 118.798 96.7196 118.883 96.8044C119.109 97.031 119.477 97.1445 119.987 97.1445C120.426 97.1445 120.847 97.063 121.25 96.9C121.654 96.7371 121.904 96.5284 122.004 96.2731C122.188 95.8058 122.396 95.2105 122.63 94.488ZM123.341 97.3145C123.114 97.5552 122.902 97.7394 122.704 97.867C121.883 98.3912 121.013 98.6536 120.093 98.6536C119.173 98.6536 118.32 98.4091 117.535 97.9202C116.749 97.4313 116.166 96.8327 115.783 96.1243C115.26 95.1324 114.821 94.1126 114.467 93.0641C114.283 92.3133 114.166 91.5521 114.117 90.7797C114.067 90.0073 114.043 89.0407 114.043 87.8788C114.043 87.6946 114.028 87.4323 114 87.0922C113.972 86.7239 113.958 86.4478 113.958 86.2632C113.958 85.9377 113.986 85.6047 114.043 85.2647C114.057 85.1794 114.099 84.9458 114.17 84.5633C114.241 84.1809 114.276 83.862 114.276 83.6067C114.304 83.4654 114.354 83.196 114.425 82.7994C114.481 82.4169 114.541 82.1122 114.605 81.8856C114.669 81.6591 114.771 81.4816 114.913 81.3543C115.069 81.1419 115.302 80.7948 115.614 80.3129C116.038 79.6615 116.402 79.1514 116.707 78.7827C117.011 78.4143 117.393 78.0955 117.853 77.8265C118.313 77.5575 118.854 77.4228 119.477 77.4228C119.76 77.4228 119.979 77.4369 120.135 77.4652C120.984 77.4652 121.66 77.5924 122.163 77.8477C122.665 78.1025 123.136 78.5565 123.575 79.2079C124.239 79.647 124.802 80.3271 125.262 81.2479C125.722 82.1692 126.002 83.1819 126.101 84.2869C126.157 84.8681 126.186 85.633 126.186 86.5821V87.5171C126.186 88.9626 126.065 90.1881 125.825 91.1938C125.4 93.2059 124.756 94.9981 123.893 96.5708C123.752 96.8256 123.567 97.0734 123.341 97.3145Z" fill="#2C8579"/>
<path d="M60.3122 105.155C60.4297 105.03 60.5323 104.888 60.6183 104.731C60.7528 104.487 60.8209 104.21 60.8209 103.907C60.8209 103.53 60.7113 103.186 60.4945 102.885C60.2885 102.598 60.0057 102.368 59.6531 102.201C59.3089 102.038 58.9106 101.956 58.4683 101.956C57.943 101.956 57.4816 102.066 57.0971 102.285C56.7221 102.498 56.4143 102.773 56.181 103.105C56.056 103.288 56.0186 103.505 56.0759 103.716C56.1266 103.904 56.2329 104.061 56.3894 104.172C56.6004 104.317 56.8383 104.35 57.0626 104.263C57.2262 104.199 57.3774 104.078 57.4995 103.919C57.6232 103.772 57.7611 103.667 57.9214 103.599C58.0888 103.528 58.2727 103.492 58.4683 103.492C58.7229 103.492 58.926 103.543 59.0722 103.642C59.1432 103.69 59.2154 103.768 59.2154 103.985C59.2154 104.213 59.1303 104.32 59.0668 104.381C58.9584 104.483 58.8296 104.531 58.6619 104.531H58.2669C58.051 104.531 57.8624 104.612 57.7221 104.765C57.5888 104.908 57.5182 105.098 57.5182 105.311C57.5182 105.513 57.5884 105.697 57.7217 105.841C57.8633 105.994 58.0518 106.076 58.2669 106.076H58.7781C59.0219 106.076 59.2084 106.136 59.3487 106.259C59.4746 106.37 59.5331 106.513 59.5331 106.707C59.5331 106.85 59.497 106.973 59.4231 107.082C59.3438 107.199 59.2358 107.288 59.0938 107.355C58.9418 107.426 58.7574 107.463 58.546 107.463C58.2819 107.463 58.0497 107.416 57.8359 107.32C57.6307 107.229 57.4804 107.125 57.3957 107.02C57.2723 106.86 57.112 106.751 56.9343 106.705C56.7295 106.651 56.5231 106.688 56.3429 106.805C56.1353 106.933 56.0202 107.148 56.0269 107.393C56.0294 107.495 56.0335 107.597 56.0389 107.698L56.0435 107.785L56.0821 107.863C56.2109 108.119 56.4235 108.339 56.7138 108.517C56.9737 108.675 57.2719 108.797 57.6008 108.879C57.9214 108.959 58.2445 109 58.5614 109C59.0385 109 59.4737 108.903 59.855 108.712C60.2433 108.518 60.5556 108.249 60.7831 107.915C61.019 107.569 61.1386 107.179 61.1386 106.754C61.1386 106.373 61.0547 106.041 60.8886 105.767C60.7366 105.515 60.5427 105.31 60.3122 105.155Z" fill="#F57455"/>
<path d="M67.7803 106.263C67.6897 106.499 67.5593 106.707 67.3924 106.88C67.2254 107.054 67.024 107.192 66.7944 107.291C66.3396 107.488 65.7271 107.488 65.2715 107.291C65.0398 107.191 64.8463 107.057 64.6793 106.881C64.5136 106.708 64.3824 106.499 64.289 106.26C64.1947 106.021 64.1469 105.756 64.1469 105.474C64.1469 105.192 64.1947 104.927 64.289 104.687C64.3824 104.449 64.5136 104.24 64.6798 104.066C64.8459 103.891 65.0381 103.759 65.269 103.661C65.497 103.565 65.7545 103.516 66.0332 103.516C66.3118 103.516 66.5689 103.565 66.7977 103.661C67.0261 103.758 67.2259 103.894 67.3924 104.068C67.5593 104.241 67.6897 104.448 67.7803 104.684C67.8725 104.925 67.9194 105.19 67.9194 105.474C67.9194 105.757 67.8725 106.023 67.7803 106.263ZM68.5444 102.951C68.2317 102.635 67.8579 102.388 67.4331 102.215C66.5867 101.871 65.4808 101.87 64.6299 102.215C64.2018 102.387 63.8272 102.636 63.5165 102.952C63.208 103.268 62.9655 103.644 62.7956 104.072C62.627 104.496 62.5419 104.968 62.5419 105.474C62.5419 105.979 62.627 106.452 62.7956 106.879C62.9646 107.309 63.2076 107.687 63.517 108.004C63.8272 108.319 64.2018 108.568 64.6303 108.741C65.0556 108.913 65.5273 109 66.0332 109C66.539 109 67.0099 108.913 67.4335 108.741C67.8579 108.568 68.2317 108.32 68.5448 108.004C68.8571 107.688 69.1017 107.31 69.2711 106.879C69.4393 106.452 69.5249 105.979 69.5249 105.474C69.5249 104.968 69.4393 104.496 69.2707 104.072C69.1009 103.643 68.8563 103.266 68.5444 102.951Z" fill="#F57455"/>
<path d="M76.2934 106.263C76.2029 106.499 76.0725 106.707 75.9056 106.88C75.7382 107.054 75.5372 107.192 75.3075 107.291C74.8524 107.488 74.2399 107.488 73.7843 107.291C73.553 107.191 73.3595 107.057 73.1925 106.881C73.0268 106.708 72.8952 106.499 72.8017 106.26C72.7079 106.021 72.6601 105.756 72.6601 105.474C72.6601 105.192 72.7079 104.927 72.8021 104.687C72.8952 104.449 73.0268 104.24 73.1929 104.066C73.3586 103.891 73.5513 103.759 73.7818 103.661C74.0102 103.565 74.2673 103.516 74.5463 103.516C74.825 103.516 75.082 103.565 75.3105 103.661C75.5389 103.758 75.739 103.894 75.9056 104.068C76.0725 104.241 76.2029 104.449 76.2934 104.684C76.3856 104.925 76.4321 105.191 76.4321 105.474C76.4321 105.757 76.3856 106.023 76.2934 106.263ZM77.0571 102.951C76.7448 102.635 76.3707 102.388 75.9463 102.215C75.1003 101.871 73.994 101.87 73.1431 102.215C72.7149 102.387 72.3403 102.636 72.0293 102.952C71.7207 103.268 71.4782 103.645 71.3088 104.072C71.1402 104.496 71.0546 104.968 71.0546 105.474C71.0546 105.979 71.1402 106.452 71.3084 106.879C71.4774 107.309 71.7199 107.687 72.0297 108.004C72.3403 108.319 72.7149 108.568 73.1435 108.741C73.5683 108.913 74.0405 109 74.5463 109C75.0521 109 75.5231 108.913 75.9463 108.741C76.3707 108.568 76.7448 108.32 77.0576 108.004C77.3698 107.688 77.614 107.31 77.7843 106.879C77.9525 106.452 78.0376 105.978 78.0376 105.474C78.0376 104.969 77.9521 104.497 77.7835 104.071C77.6132 103.643 77.369 103.266 77.0571 102.951Z" fill="#F57455"/>
<path d="M84.7426 102.033H80.62C80.3983 102.033 80.1994 102.112 80.0445 102.262C79.8862 102.416 79.8019 102.62 79.8019 102.852V108.104C79.8019 108.328 79.8846 108.529 80.0399 108.685C80.3555 109.001 80.907 108.993 81.2098 108.679C81.3593 108.524 81.4386 108.325 81.4386 108.104V103.578H83.9245V108.104C83.9245 108.328 84.0067 108.529 84.1624 108.685C84.3177 108.84 84.5183 108.922 84.7426 108.922C84.9747 108.922 85.1782 108.838 85.3323 108.679C85.4818 108.524 85.5611 108.325 85.5611 108.104V102.852C85.5611 102.623 85.4801 102.422 85.3269 102.267C85.1741 102.114 84.9718 102.033 84.7426 102.033Z" fill="#F57455"/>
<path d="M89.5638 106.09L90.0692 104.853L90.5663 106.09H89.5638ZM90.8267 102.575C90.6984 102.231 90.418 102.033 90.0572 102.033C89.7158 102.033 89.4384 102.224 89.2947 102.56L87.1207 107.756C87.0032 108.021 87.021 108.3 87.1714 108.541C87.325 108.787 87.5684 108.922 87.857 108.922C88.0048 108.922 88.1485 108.882 88.2802 108.803C88.4247 108.718 88.5385 108.587 88.6132 108.416L88.9513 107.588H91.1689L91.5007 108.414C91.5642 108.572 91.6735 108.703 91.8163 108.793C91.9529 108.879 92.1016 108.922 92.2582 108.922C92.5489 108.922 92.7926 108.793 92.9446 108.557C93.0908 108.33 93.1141 108.056 93.0053 107.78L90.8267 102.575Z" fill="#F57455"/>
<path d="M97.609 104.872C97.5426 104.988 97.4537 105.077 97.3374 105.144C97.2195 105.211 97.0812 105.244 96.9155 105.244H96.1842V103.609H96.9155C97.0779 103.609 97.2137 103.643 97.3295 103.712C97.4471 103.783 97.5372 103.878 97.6049 104.001C97.6751 104.13 97.7091 104.279 97.7091 104.458C97.7091 104.618 97.6763 104.753 97.609 104.872ZM98.1518 102.343C97.7901 102.137 97.3744 102.033 96.9155 102.033H95.3661C95.1443 102.033 94.945 102.112 94.7905 102.262C94.6319 102.416 94.548 102.62 94.548 102.852V108.103C94.548 108.328 94.6302 108.529 94.7855 108.685C94.9408 108.84 95.1418 108.922 95.3661 108.922C95.5982 108.922 95.8021 108.838 95.9549 108.68C96.1049 108.525 96.1842 108.325 96.1842 108.103V106.82H96.9155C97.3731 106.82 97.7872 106.719 98.1472 106.52C98.5135 106.318 98.803 106.032 99.0085 105.672C99.2116 105.315 99.315 104.906 99.315 104.458C99.315 103.995 99.2124 103.576 99.0106 103.213C98.8067 102.844 98.5181 102.552 98.1518 102.343Z" fill="#F57455"/>
<path d="M105.937 107.607L104.008 105.365L105.735 103.358C105.87 103.203 105.944 103.023 105.949 102.838C105.953 102.701 105.92 102.496 105.741 102.29C105.586 102.114 105.385 102.03 105.136 102.029C104.897 102.035 104.692 102.134 104.545 102.314L102.584 104.662H102.396V102.852C102.396 102.623 102.315 102.421 102.162 102.267C101.862 101.966 101.317 101.958 101.003 102.262C100.844 102.415 100.76 102.62 100.76 102.852V108.103C100.76 108.328 100.843 108.53 100.998 108.685C101.314 109.001 101.864 108.992 102.167 108.679C102.317 108.524 102.396 108.325 102.396 108.103V106.208H102.621L104.721 108.655C104.871 108.828 105.077 108.921 105.32 108.927H105.341C105.629 108.927 105.812 108.804 105.916 108.7C106.139 108.477 106.17 108.251 106.156 108.103C106.141 107.923 106.067 107.755 105.937 107.607Z" fill="#F57455"/>
<path d="M67.6101 62.9471C67.6101 62.9446 67.6101 62.9421 67.6101 62.9396C67.6101 62.8972 67.6093 62.8548 67.6081 62.8124C67.6081 62.8078 67.6076 62.8032 67.6076 62.7991C67.6064 62.7583 67.6043 62.718 67.6018 62.6777C67.6014 62.6714 67.601 62.6656 67.6006 62.6598C67.5981 62.6207 67.5952 62.5812 67.5914 62.5422C67.591 62.5355 67.5902 62.5289 67.5898 62.5226C67.586 62.4835 67.5819 62.4449 67.5773 62.4062C67.5765 62.3996 67.5757 62.3929 67.5748 62.3858C67.5698 62.3472 67.5644 62.3081 67.5586 62.2694C67.5578 62.2632 67.557 62.257 67.5561 62.2507C67.5499 62.2104 67.5433 62.1701 67.5358 62.1293C67.535 62.1252 67.5345 62.121 67.5337 62.1169C67.4544 61.6833 67.3169 61.2588 67.1301 60.8643C67.1168 60.8356 67.1027 60.8073 67.0889 60.7791C67.0582 60.7171 67.0267 60.656 66.9943 60.5953C66.993 60.5932 66.9922 60.5916 66.9914 60.5899C66.9262 60.4685 66.8572 60.35 66.7845 60.2336C66.7837 60.2328 66.7829 60.2315 66.7821 60.2303C66.7455 60.1717 66.7081 60.1139 66.6699 60.0565C66.6695 60.0565 66.6695 60.0565 66.6695 60.0565C66.4735 59.7634 66.2546 59.4853 66.0192 59.2201C66.0192 59.2201 66.0192 59.2201 66.0192 59.2197C65.9286 59.1178 65.836 59.0176 65.7409 58.9195C65.7405 58.9191 65.7401 58.9187 65.7397 58.9178C65.6948 58.8717 65.65 58.8264 65.6047 58.7811C65.5977 58.774 65.5906 58.7669 65.5835 58.7599C65.5387 58.7154 65.4938 58.6713 65.4486 58.6277C65.2027 58.3915 64.9465 58.1658 64.6853 57.9484C64.6188 57.8931 64.5524 57.8382 64.4851 57.7842C64.3983 57.7139 64.3111 57.6445 64.2231 57.5751C64.204 57.5601 64.1845 57.5447 64.1654 57.5297C64.081 57.4636 63.9963 57.3975 63.9112 57.3323C63.9112 57.3323 63.9112 57.3323 63.9108 57.3323C63.7322 57.1947 63.5528 57.0583 63.373 56.9224C63.3244 56.8854 63.2758 56.8488 63.2272 56.8122C63.1919 56.7852 63.1566 56.7582 63.1213 56.7315C63.074 56.6958 63.0271 56.6596 62.9797 56.6239C62.9544 56.6043 62.9286 56.5848 62.9033 56.5657C62.8481 56.5233 62.7933 56.4809 62.738 56.4385C62.721 56.4252 62.704 56.4123 62.6869 56.399C62.6151 56.3433 62.5433 56.2875 62.4718 56.2314C62.3194 56.1109 62.1678 55.9891 62.0183 55.8648C61.7883 55.6739 61.5628 55.4773 61.3443 55.2723C61.3281 55.2574 61.3115 55.2424 61.2953 55.227C61.1658 55.104 61.0391 54.978 60.9149 54.8495C60.8626 54.7951 60.8103 54.7402 60.7588 54.6849C60.7584 54.6845 60.7579 54.6841 60.7575 54.6833C60.7085 54.6309 60.6599 54.5781 60.6118 54.5244C60.608 54.5203 60.6043 54.5166 60.6006 54.512C60.5561 54.4629 60.5125 54.413 60.4689 54.3631C60.4623 54.3557 60.4556 54.3482 60.449 54.3407C60.4004 54.2846 60.3518 54.228 60.304 54.1707C60.2118 54.0609 60.1213 53.9491 60.0324 53.8364C59.8697 53.6294 59.7127 53.4178 59.5611 53.2024C59.4436 53.0353 59.3294 52.8657 59.2185 52.694C59.1537 52.5942 59.0902 52.4936 59.0279 52.3922C59.025 52.388 59.0225 52.3839 59.02 52.3797C58.9573 52.2779 58.8954 52.1756 58.8348 52.0721C58.7301 51.8941 58.6284 51.7141 58.5291 51.5329C58.4249 51.3404 58.3231 51.1467 58.2247 50.9509C58.0972 50.6973 57.9747 50.4412 57.8572 50.183C57.824 50.1098 57.7907 50.0367 57.7584 49.9635C57.7563 49.9589 57.7542 49.9548 57.7525 49.9502C57.7193 49.8754 57.6861 49.8001 57.6537 49.7249C57.6392 49.6908 57.6242 49.6567 57.6093 49.6226C57.6055 49.6139 57.6014 49.6047 57.5976 49.596C57.5225 49.4272 57.4378 49.2622 57.3082 49.1329C57.1454 48.9708 56.8921 48.8772 56.6828 48.9699C56.3767 49.105 56.3352 49.5203 56.3572 49.8563C56.3692 50.0375 56.3875 50.2188 56.4099 50.3992C56.4103 50.4004 56.4103 50.4017 56.4103 50.4029C56.422 50.4944 56.4348 50.5854 56.4494 50.6765C56.4506 50.6856 56.4523 50.6944 56.4535 50.7035C56.4755 50.8411 56.5005 50.9779 56.5283 51.1142C56.5308 51.1263 56.5333 51.1379 56.5358 51.15C56.6682 51.7811 56.8642 52.3984 57.1192 52.9908C57.1948 53.1654 57.275 53.338 57.3601 53.508C57.3605 53.508 57.3605 53.5084 57.3605 53.5084C57.4012 53.5895 57.4432 53.6697 57.4863 53.7495C57.4967 53.7695 57.5075 53.7894 57.5183 53.8094C57.6741 54.0938 57.8431 54.3702 58.0258 54.6375C58.0652 54.6949 58.1051 54.7519 58.1458 54.8084C58.1483 54.8121 58.1512 54.8159 58.1537 54.8196C58.1944 54.8762 58.2355 54.9323 58.2775 54.9876C58.2795 54.9905 58.2816 54.993 58.2837 54.9959C58.3265 55.0528 58.3701 55.109 58.4145 55.1651C58.4149 55.1659 58.4153 55.1667 58.4162 55.1672C58.596 55.395 58.7858 55.6141 58.9859 55.824C58.9859 55.8244 58.9863 55.8244 58.9868 55.8248C59.0466 55.8876 59.1076 55.95 59.1695 56.0111C59.1873 56.0285 59.2052 56.0464 59.2231 56.0639C59.248 56.088 59.2729 56.1121 59.2978 56.1362C59.3402 56.1765 59.3825 56.2169 59.4257 56.2564C59.4876 56.3129 59.5499 56.369 59.6134 56.4239C59.9635 56.7278 60.3348 57.0043 60.7143 57.2691C60.7173 57.2712 60.7202 57.2732 60.7231 57.2753C60.7787 57.314 60.8344 57.3522 60.8904 57.3909C61.135 57.558 61.3821 57.7218 61.6292 57.8856C61.7447 57.9617 61.8597 58.0382 61.9747 58.1151C61.9776 58.1172 61.9805 58.1188 61.9835 58.1209C62.0985 58.1978 62.2131 58.2751 62.3273 58.3537C62.3771 58.3882 62.4274 58.4227 62.4776 58.4576C62.6413 58.572 62.8041 58.6896 62.9643 58.8106C63.2181 59.0022 63.466 59.2026 63.7015 59.4151C63.8348 59.5352 63.9644 59.6595 64.0889 59.7875C64.0889 59.788 64.0885 59.788 64.0885 59.7884C64.2978 60.0041 64.4934 60.232 64.6703 60.4747C64.6703 60.4743 64.6708 60.4743 64.6708 60.4743C64.7712 60.6119 64.8655 60.7541 64.9523 60.9013C64.9548 60.905 64.9573 60.9088 64.9594 60.9125C64.9598 60.9129 64.9598 60.9133 64.9602 60.9138C64.9793 60.9462 64.998 60.979 65.0163 61.0119C65.0204 61.0198 65.025 61.0277 65.0291 61.0356C65.0433 61.0613 65.0578 61.0875 65.0715 61.1137C65.0757 61.1212 65.079 61.1287 65.0831 61.1358C65.0972 61.1632 65.1114 61.1906 65.1251 61.2185C65.128 61.2239 65.1309 61.2297 65.1334 61.2355C65.1483 61.265 65.1629 61.295 65.177 61.3249C65.1786 61.3286 65.1803 61.3328 65.1824 61.3365C65.1973 61.369 65.2119 61.401 65.226 61.4334C65.2272 61.4355 65.2281 61.438 65.2289 61.4401C65.2438 61.4746 65.2588 61.5087 65.2729 61.5432C65.2733 61.5444 65.2737 61.5452 65.2737 61.5461C65.2887 61.5818 65.3028 61.618 65.3169 61.6542C65.3311 61.6912 65.3443 61.7277 65.3576 61.7647C65.3996 61.8845 65.4374 62.0055 65.4689 62.1277C65.4806 62.1713 65.4909 62.215 65.5009 62.259C65.5013 62.2603 65.5013 62.2611 65.5017 62.2624C65.5109 62.3027 65.5192 62.3434 65.5271 62.3838C65.5283 62.3912 65.5296 62.3983 65.5312 62.4058C65.5379 62.4416 65.5441 62.4777 65.5499 62.5135C65.5507 62.5205 65.552 62.5272 65.5532 62.5343C65.5595 62.5754 65.5653 62.6166 65.5703 62.6581C65.5703 62.6586 65.5703 62.659 65.5703 62.659C65.5806 62.7479 65.5881 62.8369 65.5923 62.9259V62.9263C65.5939 62.9691 65.5952 63.0123 65.5952 63.0552V63.0635C65.5956 63.1067 65.5948 63.1495 65.5935 63.1924C65.5898 63.2905 65.5819 63.3877 65.569 63.4846C65.5599 63.5565 65.5478 63.628 65.5329 63.6995C65.5316 63.7058 65.5304 63.7124 65.5287 63.7191C65.5246 63.7399 65.5196 63.7607 65.5146 63.7814C65.5125 63.7902 65.5105 63.7985 65.5084 63.8072C65.5005 63.8384 65.4922 63.8692 65.4835 63.8999C65.4793 63.9149 65.4747 63.9303 65.4702 63.9452C65.466 63.9598 65.4615 63.9743 65.4565 63.9889C65.4511 64.0068 65.4448 64.0246 65.4386 64.0425C65.4345 64.0546 65.4307 64.0662 65.4266 64.0779C65.4025 64.1435 65.3763 64.2088 65.3468 64.2732C64.8398 63.8509 64.1774 63.6451 63.5196 63.6147C62.8622 63.5848 62.2281 63.7623 61.5923 63.9353C60.7916 64.1531 60.0719 64.5942 59.3198 64.9476C59.2156 64.9966 59.1039 65.0448 58.9897 65.0324C58.8206 65.0145 58.6898 64.8644 58.6346 64.7027C58.7579 64.652 58.8692 64.5742 58.9473 64.467C59.0395 64.3398 59.0802 64.1814 59.0989 64.0246C59.1305 63.7602 59.1055 63.4933 59.0806 63.2285C58.8231 63.2979 58.5731 63.3956 58.336 63.5195C58.3344 63.5204 58.3323 63.5216 58.3306 63.5224C58.2314 63.4023 58.1026 63.3058 57.9614 63.2389C57.7513 63.1396 57.5158 63.1026 57.2837 63.1067C57.0997 63.11 56.9099 63.1404 56.755 63.2406C56.6765 63.2917 56.6084 63.3595 56.5241 63.4002C56.4286 63.4464 56.3215 63.453 56.2139 63.448C56.1653 63.4235 56.1084 63.4156 56.0511 63.4214C56.0507 63.4214 56.0503 63.421 56.0499 63.4206C56.0266 63.4044 55.9984 63.3961 55.9706 63.3898C55.9257 63.3794 55.8796 63.374 55.8339 63.3728C55.7787 63.3711 55.7567 63.3853 55.7455 63.4343C55.7318 63.4917 55.7176 63.5536 55.7206 63.6135C55.721 63.6305 55.7239 63.6492 55.733 63.6634C55.7081 63.7469 55.7081 63.8371 55.7135 63.9249C55.7152 63.9535 55.7181 63.9835 55.726 64.0113C55.7251 64.0159 55.7243 64.0205 55.7239 64.0251C55.7239 64.0275 55.7239 64.0296 55.7235 64.0321C55.7235 64.0371 55.7235 64.0417 55.7235 64.0467C55.7235 64.0496 55.7235 64.0525 55.7239 64.055C55.7239 64.0596 55.7247 64.0641 55.7251 64.0687C55.7255 64.072 55.7255 64.0749 55.726 64.0783C55.7268 64.0833 55.728 64.0882 55.7289 64.0936C55.7301 64.0999 55.7318 64.1065 55.7334 64.1132C55.7338 64.1157 55.7347 64.1182 55.7355 64.1207C55.7368 64.1261 55.7384 64.1315 55.7401 64.1369C55.7405 64.1385 55.7413 64.1406 55.7417 64.1423C55.7712 64.2333 55.8289 64.3281 55.8622 64.393C55.971 64.6042 56.0843 64.8129 56.1973 65.022C56.2255 65.0739 56.2538 65.1263 56.2816 65.1783C56.4643 65.5159 56.6441 65.8551 56.8028 66.2051C56.9905 66.6184 57.1487 67.0478 57.2422 67.4935C57.2824 67.6847 57.275 67.8797 57.3343 68.0688C57.3946 68.2601 57.4976 68.4376 57.6354 68.5818C57.5628 68.9764 57.5299 69.368 57.5532 69.7687C57.0266 70.7324 56.5893 71.7181 56.2064 72.7487C56.1579 72.7 56.0648 72.6539 56.0005 72.631C55.9357 72.6081 55.8534 72.621 55.8161 72.6788C55.7716 72.6402 55.6836 72.6481 55.6404 72.6884C55.5976 72.7283 55.5777 72.7873 55.5619 72.8439C55.5391 72.9262 55.5221 73.0102 55.5104 73.0946C55.5038 73.1403 55.5021 73.1943 55.5366 73.2243C55.564 73.2484 55.6064 73.248 55.6392 73.233C55.6724 73.218 55.6985 73.1914 55.7239 73.1652C55.7775 73.2392 55.8505 73.3224 55.9411 73.3336C56.0312 73.3444 56.1325 73.2904 56.1525 73.2006C56.1882 73.2874 56.2895 73.3274 56.3775 73.2978C56.466 73.2683 56.5337 73.1977 56.5976 73.1295C56.7422 72.9736 56.8871 72.8181 57.0312 72.6618C57.4299 72.2278 57.8202 71.7858 58.2023 71.3364C58.302 71.2192 58.402 71.0995 58.4926 70.9739C58.4942 70.9718 58.4959 70.9694 58.4976 70.9673C58.5133 70.9452 58.5291 70.9232 58.5441 70.9008C58.5457 70.8983 58.547 70.8962 58.5486 70.8941C58.5644 70.8704 58.5802 70.8463 58.5951 70.8222C58.5972 70.8189 58.5993 70.8155 58.6014 70.8122C58.6138 70.7914 58.6263 70.7711 58.6383 70.7499C58.6408 70.7449 58.6442 70.7399 58.6471 70.7349C58.6603 70.7108 58.6732 70.6867 58.6857 70.6621C58.6873 70.6588 58.6886 70.6559 58.6902 70.6526C58.7006 70.6314 58.711 70.6098 58.7206 70.5881C58.7235 70.5815 58.7264 70.5748 58.7293 70.5682C58.7401 70.5432 58.7505 70.5179 58.7596 70.4925C58.7596 70.4921 58.76 70.4921 58.76 70.4921C58.7613 70.5295 58.7633 70.5669 58.7662 70.6039C58.7671 70.6139 58.7679 70.6239 58.7687 70.6334C58.7708 70.6625 58.7733 70.6916 58.7766 70.7207C58.7775 70.7295 58.7783 70.7382 58.7795 70.7469C58.826 71.1627 58.9469 71.5647 59.1309 71.9426C59.1911 72.0656 59.2579 72.1862 59.3024 72.3159C59.3468 72.4452 59.3672 72.5874 59.331 72.72C59.2746 72.6555 59.1815 72.6239 59.0972 72.6144C59.0756 72.6119 59.052 72.6119 59.0337 72.6239C59.0154 72.6356 59.0063 72.6634 59.0204 72.6805C58.971 72.6373 58.8742 72.6294 58.8252 72.6734C58.7766 72.7171 58.7671 72.799 58.8045 72.853C58.7704 72.8821 58.7334 72.9083 58.7123 72.9482C58.6911 72.9877 58.6844 73.038 58.7048 73.0783C58.7368 73.1407 58.8177 73.1557 58.8875 73.1627C59.03 73.1781 59.1728 73.1931 59.3153 73.208C59.4228 73.2197 59.542 73.228 59.6292 73.164C59.8219 73.0218 59.7999 72.6792 59.8314 72.4668C59.873 72.187 59.9182 71.9081 59.9672 71.6295C60.0366 71.2342 60.1138 70.8388 60.1305 70.4376C60.1562 69.8265 60.0383 69.2096 59.7891 68.6517C60.2517 68.7814 60.7218 68.7905 61.1948 68.7082C61.2272 68.7024 61.2878 68.6787 61.3211 68.6625C61.3211 68.6629 61.3211 68.6629 61.3211 68.6629C61.3236 68.6617 61.3261 68.6604 61.3281 68.6596C61.3281 68.66 61.3285 68.6608 61.3285 68.6612C61.341 68.712 61.3543 68.7627 61.3676 68.8134C61.3792 68.8575 61.3913 68.9015 61.4037 68.9456C61.4037 68.9456 61.4037 68.9456 61.4037 68.946C61.6662 69.8914 62.0582 70.7977 62.569 71.6341C62.7276 71.8939 62.9029 72.1525 63.1516 72.3259C63.13 72.4905 63.1159 72.651 63.123 72.8173C63.1292 72.8173 63.1354 72.8173 63.1417 72.8173C62.966 72.8168 62.802 72.8447 62.6292 72.8775C62.5524 72.8925 62.4681 72.9162 62.4282 72.9836C62.3975 73.0355 62.405 73.1099 62.4506 73.149C62.4963 73.1885 62.5765 73.1806 62.6085 73.1295C62.6379 73.1789 62.6707 73.2018 62.7281 73.2047C62.7854 73.2076 62.8435 73.1806 62.8784 73.1345C62.9398 73.2193 63.0636 73.2517 63.1653 73.2288C63.2675 73.2055 63.356 73.144 63.4415 73.0837C63.6454 72.9403 63.8506 72.7956 64.0212 72.614C64.0607 72.572 64.0993 72.5267 64.1168 72.4718C64.1487 72.3691 64.1022 72.2602 64.0582 72.1621C63.8497 71.6944 63.6911 71.2038 63.5852 70.702C63.51 70.3437 63.4058 70.0024 63.3564 69.6394C63.3194 69.3671 63.3286 69.0886 63.3825 68.8188C63.3879 68.7922 63.3938 68.7652 63.4 68.739C63.4008 68.7352 63.4016 68.7319 63.4025 68.7282C63.4079 68.7053 63.4137 68.6829 63.4199 68.66C63.4212 68.6546 63.4228 68.6488 63.4245 68.6434C63.4303 68.6222 63.4361 68.6014 63.4428 68.5806C63.4444 68.5748 63.4461 68.5685 63.4482 68.5623C63.4565 68.5365 63.4648 68.5103 63.4739 68.4846C63.4768 68.5116 63.4805 68.5378 63.4847 68.564C63.4889 68.5901 63.4938 68.6159 63.4992 68.6413C63.4992 68.6417 63.4992 68.6417 63.4992 68.6417C63.5815 69.0337 63.8016 69.3896 64.0167 69.7313C64.4291 70.3861 64.8539 71.055 65.4639 71.5277C65.7862 71.7779 66.0262 72.1089 66.3061 72.4061C66.2227 72.5475 66.1533 72.6934 66.1164 72.853C66.0254 72.8505 65.9232 72.8464 65.8323 72.8439C65.731 72.841 65.6288 72.8385 65.5291 72.8559C65.4295 72.8734 65.3306 72.9129 65.2584 72.984C65.2252 73.0168 65.1973 73.0567 65.1869 73.1024C65.1762 73.1478 65.1853 73.1993 65.2168 73.2338C65.248 73.2675 65.2982 73.2808 65.3431 73.2712C65.3879 73.2621 65.4274 73.2322 65.4536 73.1943C65.4876 73.2567 65.559 73.2924 65.6292 73.2962C65.6998 73.2995 65.7713 73.2642 65.8115 73.206C65.8759 73.2999 65.9914 73.3286 66.1031 73.3078C66.2148 73.2874 66.3128 73.2209 66.3996 73.1473C66.6126 72.9665 66.7762 72.7354 66.9378 72.5071C67.0063 72.4103 67.0765 72.3092 67.0981 72.1924C67.1226 72.0598 67.0815 71.9243 67.0366 71.7971C66.873 71.329 66.6595 70.8783 66.4012 70.4551C66.1209 69.9957 65.7443 69.5538 65.6948 69.0167C65.6712 68.7602 65.7451 68.5053 65.8306 68.2626C65.9951 67.7969 66.2077 67.3471 66.3265 66.8678C66.4453 66.388 66.449 65.8538 66.2314 65.4107C66.5071 65.3429 66.7887 65.2074 66.9868 65.0012C66.9918 64.9962 66.9972 64.9908 67.0022 64.9858C67.01 64.9771 67.0175 64.9683 67.025 64.96C67.0316 64.9521 67.0383 64.9442 67.0449 64.9363C67.0512 64.9284 67.0574 64.9209 67.0632 64.913C67.0711 64.9031 67.079 64.8923 67.0865 64.8819C67.091 64.8756 67.0956 64.8694 67.0997 64.8632C67.1114 64.8461 67.1226 64.8282 67.133 64.8104C67.1334 64.8104 67.1334 64.8104 67.1334 64.8099C67.1338 64.8095 67.1342 64.8087 67.1342 64.8083C67.1512 64.7792 67.1674 64.7501 67.1832 64.721C67.4781 64.178 67.6101 63.5669 67.6101 62.9471Z" fill="#A8DB4F"/>
<path d="M74.2261 72.0286C74.3506 71.6594 74.4013 71.2695 74.4511 70.8828C74.5957 69.7654 74.2497 68.5839 73.5512 67.7042C73.7128 66.0766 73.5786 64.3618 73.4516 62.7317C73.4308 62.4648 73.4046 62.1863 73.3153 61.9381C73.334 61.9244 73.3519 61.9098 73.3689 61.8952C73.5176 61.7672 73.7933 61.8994 73.7884 62.096C74.0354 62.0865 74.2788 61.9863 74.4615 61.8183C74.4453 61.9684 74.5483 62.1231 74.6924 62.1646C74.8365 62.2066 75.0056 62.131 75.0712 61.9954C75.3149 62.1493 75.675 62.0678 75.8303 61.8237C75.8967 61.9692 76.1252 62 76.2269 61.877C76.3166 61.9676 76.462 61.9971 76.5791 61.9476C76.6966 61.8986 76.7784 61.7739 76.7776 61.6462C77.0089 61.7535 77.2896 61.746 77.5151 61.6271C77.7182 61.5198 77.8723 61.324 77.9337 61.102C77.9603 61.3698 78.0147 61.6367 78.072 61.8994C78.3021 62.952 78.5836 63.993 78.915 65.0178C79.067 65.4871 79.2306 65.9565 79.4748 66.3847C79.7186 66.8129 80.0492 67.2016 80.474 67.4477C80.2228 67.6019 79.9391 67.8896 79.8021 68.1524C79.3365 69.0462 78.9956 70.0057 78.7925 70.9938C78.6937 71.474 78.6634 71.9592 78.6239 72.4476C78.4146 72.4693 78.1555 72.6534 77.9462 72.6755C77.8411 72.6863 77.7277 72.7008 77.6509 72.7744C77.5745 72.848 77.5703 73.0018 77.6675 73.0434C77.6052 73.006 77.5184 73.0704 77.5176 73.1432C77.5164 73.2163 77.5778 73.2783 77.6468 73.3015C77.7153 73.3248 77.79 73.3182 77.8623 73.3111C78.229 73.2758 78.5953 73.2409 78.962 73.2055C79.0733 73.1947 79.1451 73.1527 79.2211 73.1041C79.241 73.1531 79.2884 73.1922 79.3399 73.2097C79.4084 73.233 79.4831 73.2263 79.5554 73.2192C79.9221 73.1839 80.2888 73.149 80.6551 73.1136C80.8199 73.0978 80.898 73.013 81.0321 72.9403C81.0662 72.9216 81.0978 72.9095 81.1281 72.9016C81.2045 72.8817 81.2755 72.8883 81.3768 72.8821C81.6692 72.8646 81.9532 72.7536 82.1966 72.5927C82.7161 72.2502 83.0936 71.6852 83.4329 71.1726C83.8395 70.5582 84.143 69.9038 84.4437 69.2337C84.5646 68.9647 84.5475 68.6566 84.6775 68.3839C84.7871 68.154 84.9707 68.0322 85.1293 67.8522C85.3104 67.6468 85.4408 67.3587 85.5446 67.1076C85.9678 66.082 85.8341 64.9284 85.7232 63.8537C85.6597 63.241 85.4383 62.6132 85.2481 62.0291C85.0587 61.4479 84.8407 60.8763 84.5945 60.3167C84.7062 60.2627 84.8075 60.1845 84.9059 60.1072C85.0338 60.0066 85.1642 59.9039 85.2552 59.7684C85.3457 59.6329 85.3926 59.457 85.337 59.3036C85.3793 59.3119 85.4217 59.3074 85.462 59.2936C85.4981 59.3111 85.5351 59.3273 85.5729 59.3419C85.7589 59.4121 85.9765 59.4412 86.1505 59.3435C86.2755 59.2733 86.3594 59.1485 86.4636 59.0496C86.6144 58.9058 86.8121 58.8131 86.9416 58.6497C87.0712 58.4863 87.0928 58.2007 86.9109 58.1005C87.0916 58.0178 87.2822 57.9259 87.3876 57.7567C87.4935 57.5875 87.4624 57.3173 87.2784 57.2429C87.5019 57.1643 87.6709 56.9481 87.6941 56.7107C87.7174 56.4742 87.594 56.2289 87.3901 56.1075C87.5683 55.9732 87.6476 55.72 87.5783 55.5072C87.5089 55.2943 87.2963 55.138 87.0737 55.1364C87.2157 55.0649 87.293 54.884 87.2473 54.7314C87.2016 54.5785 87.0384 54.4712 86.881 54.4903C87.0052 54.3669 87.0068 54.1411 86.8847 54.0156C86.7631 53.8896 86.5388 53.8867 86.4134 54.0093C86.692 53.737 86.1131 53.234 85.8789 53.2145C85.7394 53.2024 85.6061 53.2327 85.4931 53.2955C85.3914 53.234 85.2577 53.2236 85.1509 53.2781C85.2705 53.1571 85.2834 52.9447 85.1792 52.8104C85.0745 52.6761 84.8669 52.6374 84.7215 52.7251C84.8424 52.5643 84.7946 52.3036 84.6252 52.1963C84.4562 52.0891 84.202 52.1589 84.1102 52.3381C84.1929 52.1889 84.1734 51.9889 84.0637 51.8592C83.9537 51.7291 83.7992 51.6376 83.6397 51.6962C83.5957 51.6567 83.5247 51.6522 83.4761 51.6854C83.5201 51.5611 83.4823 51.4115 83.3839 51.3237C83.2855 51.2364 83.1331 51.2165 83.016 51.2759C83.0185 51.1221 82.9221 50.9708 82.7822 50.9088C82.5787 50.8186 82.4192 51.0103 82.2722 50.9043C82.1738 50.8332 82.2032 50.5567 81.9898 50.7376C81.7672 50.4611 81.3062 50.3717 81.0554 50.6744C81.0313 50.4835 80.8843 50.3148 80.6995 50.2653C80.5151 50.2162 80.3042 50.2898 80.1895 50.4436C80.1343 50.2645 79.9537 50.1327 79.7676 50.136C79.5811 50.1389 79.4047 50.2761 79.3548 50.4569C79.3083 50.2807 79.1563 50.1372 78.9786 50.1019C78.8008 50.0662 78.6061 50.1406 78.496 50.2857C78.4881 50.1136 78.3577 49.9543 78.1912 49.9144C78.0247 49.8745 77.837 49.9568 77.7527 50.1069C77.8071 49.9955 77.7136 49.8562 77.5961 49.8184C77.4781 49.7806 77.3507 49.8142 77.2327 49.8516C77.1148 49.8886 76.991 49.9294 76.8698 49.9053C76.6929 49.8704 76.5064 49.7053 76.3606 49.8122C76.2842 49.8683 76.2539 49.9872 76.1613 50.008C76.0072 50.042 75.9524 49.7772 75.8 49.7352C75.653 49.6941 75.5305 49.8837 75.3781 49.8824C75.2842 49.8816 75.2086 49.8097 75.1272 49.7623C74.8722 49.6134 74.5006 49.7394 74.3864 50.0129C74.2431 49.7947 73.9694 49.6712 73.7119 49.7086C73.4545 49.746 73.1621 49.9086 73.0857 50.1589C73.0961 50.0129 72.905 49.8986 72.7825 49.9776C72.6559 49.7939 72.3241 49.8329 72.2423 50.0408C72.0969 49.7648 71.6422 49.7415 71.4694 50.0009C71.2792 49.739 70.8191 49.7581 70.6501 50.035C70.6476 49.8546 70.3963 49.7968 70.2277 49.8566C70.0591 49.9161 69.8967 50.0366 69.7207 50.0063C69.5354 49.9751 69.3531 49.7826 69.1937 49.8824C69.0886 49.9477 69.0537 50.1206 68.9304 50.1298C68.8108 50.1385 68.7493 49.9813 68.6388 49.9348C68.5118 49.8816 68.3755 49.9905 68.2966 50.104C68.2177 50.2175 68.1451 50.3547 68.013 50.3938C67.8751 50.4345 67.7335 50.3489 67.5898 50.3389C67.3988 50.326 67.2194 50.4528 67.1147 50.6145C67.0724 50.6794 67.04 50.75 67.0134 50.8228C66.9752 50.8049 66.9461 50.7542 66.9503 50.708C66.9565 50.6407 67.0018 50.5842 67.0275 50.5218C67.0994 50.3472 66.9852 50.1215 66.8029 50.077C66.8469 49.9656 66.8922 49.8479 66.878 49.7286C66.8635 49.6093 66.7667 49.4912 66.6476 49.4983C66.7198 49.3474 66.7937 49.189 66.7879 49.0214C66.7821 48.8543 66.6679 48.678 66.5022 48.6643C66.6081 48.5379 66.7111 48.3958 66.7248 48.2307C66.7385 48.0657 66.6255 47.8807 66.4611 47.8765C66.5612 47.7298 66.6637 47.5755 66.6874 47.3993C66.7111 47.223 66.6289 47.0189 66.4603 46.9653C66.5109 46.8214 66.5624 46.6684 66.5313 46.5188C66.5005 46.3695 66.3535 46.2332 66.2074 46.2739C66.295 46.1209 66.3855 45.9559 66.3735 45.7796C66.3618 45.6033 66.219 45.3992 66.05 45.4466C66.106 45.3676 66.101 45.2508 66.0392 45.1768C66.0836 45.0529 66.1284 44.929 66.1733 44.8047C66.2007 44.7291 66.2285 44.6497 66.2211 44.5694C66.2136 44.4888 66.1596 44.4065 66.0803 44.3944C66.1006 44.2834 66.1592 44.184 66.2082 44.0826C66.2576 43.9812 66.2983 43.8685 66.2796 43.7571C66.2609 43.6457 66.1621 43.5417 66.0504 43.5546C66.1264 43.4424 66.2032 43.3276 66.2368 43.1963C66.2701 43.0649 66.2522 42.9119 66.1567 42.8163C66.1064 42.766 66.0338 42.7282 66.0184 42.6583C65.9993 42.5735 66.0736 42.5016 66.1239 42.4309C66.2115 42.3074 66.2323 42.1387 66.177 41.9973C66.1222 41.856 65.9931 41.7462 65.8452 41.7159C65.9304 41.5317 66.018 41.3359 65.9951 41.1343C65.9727 40.9322 65.7925 40.7339 65.5944 40.7722C65.5898 40.6005 65.5823 40.4196 65.4926 40.2737C65.4694 40.2359 65.4382 40.2018 65.4025 40.1735C65.5176 39.8243 65.628 39.473 65.692 39.1109C65.7647 38.7019 65.7771 38.2761 65.6704 37.875C65.6351 37.7415 65.5716 37.596 65.4424 37.5511C65.2937 37.4992 65.1388 37.6052 65.0246 37.7137C64.8502 37.8791 64.6961 38.0666 64.5666 38.2695C64.4519 38.4495 64.3556 38.6416 64.2808 38.8419C64.2426 38.9446 64.1866 39.0773 64.1579 39.2053C64.0869 39.2136 64.018 39.2419 63.964 39.2901C63.932 39.2003 63.8456 39.1334 63.7514 39.1251C63.6571 39.1167 63.5603 39.1679 63.5134 39.2506C63.5225 39.1267 63.4486 39.0008 63.3361 38.9496C63.224 38.8985 63.0811 38.9251 62.9943 39.0136C62.9698 38.9101 62.8784 38.8262 62.7738 38.8112C62.6691 38.7966 62.5578 38.8519 62.5059 38.9446C62.4511 38.8336 62.3282 38.7609 62.2053 38.7671C62.0823 38.7734 61.9673 38.8582 61.9237 38.9742C61.8386 38.8611 61.6949 38.7954 61.5545 38.8058C61.4486 38.8137 61.3477 38.8644 61.275 38.9417C61.1579 38.8004 61.0072 38.6715 60.9171 38.5763C60.7161 38.3643 60.5358 38.1327 60.3788 37.8858C60.2954 37.7548 60.1866 37.601 60.0325 37.6122C59.9324 37.6197 59.8494 37.7012 59.8116 37.7947C59.7738 37.8887 59.7734 37.9926 59.7771 38.0936C59.7962 38.5875 59.9092 39.0698 60.0441 39.5462C59.9926 39.5832 59.9465 39.6277 59.9087 39.6792C59.7763 39.8588 59.7497 40.112 59.8423 40.3153C59.7406 40.366 59.6816 40.4911 59.7065 40.6026C59.7318 40.714 59.839 40.8004 59.9523 40.8017C59.8689 40.9064 59.8822 41.0761 59.981 41.1663C60.0794 41.2565 60.2484 41.2536 60.344 41.1596C60.2983 41.2661 60.3967 41.3879 60.5084 41.4153C60.6201 41.4427 60.736 41.4074 60.8485 41.3845C60.8992 41.3741 60.9528 41.3675 61.0047 41.3692C60.9968 41.38 60.9889 41.3912 60.9818 41.4028C60.8502 41.6244 60.8726 41.8751 60.7098 42.0746C60.65 42.1478 60.5815 42.2517 60.5229 42.3262C60.4698 42.3943 60.4403 42.4496 60.481 42.5141C60.4723 42.5203 60.4636 42.5274 60.4548 42.5353C60.432 42.5698 60.3838 42.6321 60.3942 42.6621C60.2858 42.8271 60.2269 43.0258 60.2322 43.2237C60.2376 43.4461 60.3236 43.6652 60.4677 43.8332C60.4582 43.8677 60.4627 43.9001 60.4964 43.925C60.498 43.9267 60.5001 43.928 60.5022 43.9296C60.3863 44.0685 60.3793 44.2722 60.4752 44.4301C60.5425 44.5416 60.6484 44.6226 60.7675 44.675C60.7638 44.6825 60.7592 44.69 60.7559 44.6983C60.7223 44.7893 60.7584 44.8941 60.8215 44.9673C60.8847 45.0404 60.971 45.0882 61.0558 45.1348C60.8984 45.1976 60.8548 45.4183 60.9278 45.5722C61.0009 45.726 61.1529 45.8241 61.3033 45.9027C61.128 46.0249 61.1035 46.3146 61.2555 46.4647C61.3182 46.5271 61.4096 46.5774 61.4179 46.6655C61.4249 46.7449 61.3593 46.8094 61.324 46.8804C61.2451 47.0401 61.3489 47.2604 61.5213 47.3003C61.3589 47.435 61.3261 47.7019 61.4515 47.872C61.3103 47.9709 61.285 48.2004 61.4013 48.328C61.2422 48.5725 61.1089 48.8431 61.0956 49.1353C61.0902 49.2476 61.1064 49.3785 61.2011 49.438C61.2389 49.4617 61.2858 49.4708 61.3195 49.5004C61.3971 49.5685 61.3635 49.6941 61.3294 49.7918C61.2592 49.9942 61.214 50.2054 61.1957 50.4187C61.1832 50.5617 61.1837 50.711 61.2414 50.8423C61.2987 50.9737 61.4254 51.0826 61.5682 51.0801C61.4922 51.2659 61.415 51.4568 61.4117 51.6576C61.4079 51.8579 61.4939 52.0733 61.6716 52.1647C61.7082 52.1835 61.7501 52.1984 61.7746 52.2317C61.817 52.2891 61.7904 52.3693 61.768 52.437C61.6787 52.7035 61.6899 53.0274 61.8826 53.2307C61.9287 53.2793 61.9852 53.3217 62.0101 53.3845C62.0761 53.5524 61.8768 53.7507 61.9632 53.9091C62.008 53.9915 62.1131 54.0226 62.1654 54.1004C62.2132 54.1719 62.2061 54.265 62.2111 54.3515C62.2161 54.4375 62.2472 54.5369 62.3286 54.5635C62.2435 54.7826 62.253 55.0004 62.3053 55.2295C62.3577 55.4586 62.6147 55.6535 62.8244 55.55C62.67 55.6963 62.5973 55.9254 62.6405 56.1349C62.6833 56.344 62.8398 56.5257 63.0392 56.5981C62.9067 56.855 63.0313 57.2117 63.2941 57.3285C63.1293 57.5954 63.2887 58.002 63.5902 58.0835C63.4162 58.3778 63.6384 58.8197 63.9764 58.8534C63.9391 59.0567 63.9133 59.2791 64.0122 59.4599C64.1114 59.6412 64.3867 59.7322 64.5267 59.5805C64.5097 59.6927 64.5271 59.8091 64.5728 59.9131C64.5171 60.1509 64.5271 60.399 64.6434 60.6102C64.7123 60.6136 64.7817 60.6173 64.851 60.621C64.7767 60.7553 64.8157 60.942 64.937 61.0351C65.0583 61.1286 65.2472 61.1166 65.3564 61.0089C65.3689 61.243 65.7073 61.376 65.8739 61.2118C65.8868 61.3806 66.0097 61.5352 66.1704 61.5851C66.3311 61.6346 66.5192 61.576 66.6243 61.4438C66.6314 61.5598 66.7198 61.6329 66.8307 61.6787C66.6098 62.3376 66.6388 63.0718 66.6858 63.7748C66.7331 64.4836 66.7925 65.1978 66.9943 65.8783C67.1961 66.5589 67.5516 67.2111 68.1019 67.6551C67.3494 68.8474 67.1218 70.1786 67.1833 71.5896C67.1961 71.8839 67.2422 72.2265 67.4951 72.3753C67.3905 72.4152 67.1571 72.3404 67.0462 72.325C66.9353 72.3096 66.8103 72.308 66.726 72.382C66.6538 72.4451 66.65 72.5807 66.719 72.6339C66.6293 72.6094 66.5188 72.6867 66.5051 72.7852C66.4897 72.9 66.572 73.0093 66.6745 73.0617C66.7767 73.1141 66.8951 73.122 67.0093 73.1286C67.3593 73.149 67.709 73.1689 68.0591 73.1893C68.3336 73.2055 68.6251 73.2176 68.866 73.0841C69.1135 72.9465 69.2597 72.6809 69.388 72.4269C69.633 71.94 69.8606 71.4441 70.0695 70.9402C70.2825 70.4264 70.4777 69.898 70.5442 69.3455C70.6181 68.7236 70.5234 68.0825 70.2721 67.5096C70.3411 67.2315 70.4067 66.9546 70.4686 66.6786C70.682 67.2294 70.991 67.7412 71.4183 68.1411C71.3805 68.1183 71.3344 68.1029 71.307 68.1124C71.1102 69.2524 71.2701 70.4522 71.758 71.4994C71.9599 71.9313 72.2232 72.3753 72.1663 72.8497C72.0757 72.8721 71.9997 72.8551 71.9067 72.8555C71.8133 72.8555 71.7128 72.8729 71.6484 72.9411C71.584 73.0089 71.5828 73.1398 71.6654 73.1831C71.599 73.1303 71.5138 73.2583 71.5641 73.3273C71.6139 73.3963 71.7124 73.4017 71.7971 73.4005C72.4208 73.3918 73.0923 73.3672 73.589 72.9864C73.8967 72.7499 74.1015 72.3978 74.2261 72.0286Z" fill="#5EC9BB"/>
<path d="M94.5933 52.6603C94.3272 52.9272 93.9289 52.9571 93.676 53.1775C93.4231 53.254 93.2188 53.1184 93.0061 53.1359C92.7827 53.3242 92.659 53.6219 92.3612 53.6788C92.2536 53.8268 92.4883 53.9 92.3944 54.0393C92.2831 54.1565 92.1124 54.0472 91.98 54.1212C91.884 54.1898 91.8533 54.3257 91.7366 54.3677C91.6498 54.4666 91.7649 54.5889 91.6698 54.7019C91.4837 54.8782 91.2815 54.6932 91.0813 54.6766C90.926 54.7818 91.0373 54.9663 90.9484 55.0869C90.8259 55.2652 90.6378 55.343 90.4422 55.4008C89.2976 55.7375 88.1357 55.9649 86.9447 56.0792C85.3495 56.2326 83.7856 56.0368 82.2225 55.7778C81.4612 55.6515 80.6963 55.5413 79.9268 55.5155C78.2694 55.4606 76.7415 55.9021 75.3578 56.8205C74.7187 57.2445 74.2743 57.8336 73.9662 58.5308C73.5173 59.5476 73.1767 60.6061 72.7901 61.6466C72.4737 62.4985 72.1527 63.3507 71.5708 64.0666C70.8719 64.9271 69.9899 65.4027 68.8528 65.3341C67.9002 65.2768 67.4558 64.7347 67.2153 63.8787C67.1165 63.5253 67.1967 63.2464 67.4301 62.9815C67.8719 62.4802 67.9159 62.0087 67.5899 61.4242C67.3989 61.0817 67.207 60.7391 67.0372 60.4344C67.0027 60.2032 67.1414 60.0245 67.0405 59.7962C66.8474 60.0286 66.8225 60.2901 66.7859 60.5595C66.7536 60.5117 66.7324 60.4805 66.6921 60.4207C66.6182 60.5408 66.6369 60.7175 66.445 60.7408C66.5928 61.1216 66.5754 61.4741 66.4126 61.8242C66.3433 61.9726 66.3254 62.136 66.3852 62.2993C66.5127 62.6477 66.5081 63.0015 66.5069 63.3723C66.5036 64.4728 67.004 65.3267 67.9554 65.8858C68.6277 66.2812 68.9512 66.2832 69.7286 66.2138C70.1601 66.1752 70.5887 66.1319 71.0073 66.0097C71.7586 65.7906 72.3009 65.2938 72.7718 64.7006C73.0156 64.3929 73.2498 64.0778 73.4766 63.7814C73.6257 63.7111 73.7544 63.6999 73.8977 63.776C74.0019 64.0383 73.8948 64.3006 73.864 64.5638C73.7976 65.1325 73.6385 65.6788 73.4263 66.2076C73.1693 66.8486 72.7947 67.3808 72.0202 67.508C71.9907 67.9748 71.9529 68.4159 71.9363 68.8583C71.8964 69.9026 71.9492 70.944 72.0812 71.98C72.2042 72.9444 72.6884 73.3556 73.661 73.3415C73.7964 73.3394 73.9326 73.3348 74.0659 73.3161C74.2121 73.2957 74.3553 73.2571 74.4861 73.2296C74.7818 72.7062 74.6261 72.4106 73.6531 71.6569C73.6722 70.655 73.8088 69.6847 74.7818 69.0665C75.4699 68.6296 76.1344 68.1652 76.6809 67.5516C76.8325 67.3816 76.9799 67.2082 77.1809 66.9771C77.6124 68.1465 77.5896 69.3039 77.5866 70.4355C77.6473 70.5927 77.759 70.6704 77.8769 70.7382C78.6527 71.1838 79.2631 71.8145 79.8408 72.4834C79.982 72.6472 80.129 72.8072 80.2806 72.9615C80.5273 73.2118 80.8346 73.3647 81.1784 73.3959C82.0215 73.472 82.847 73.351 83.6377 73.1531C84.0024 72.5944 83.3799 71.7122 82.6843 71.8744C82.2528 71.975 81.9239 71.8577 81.6029 71.5863C81.2299 71.2707 80.8616 70.9527 80.5431 70.581C80.0609 70.0194 79.9073 69.3725 80.0302 68.6479C80.1195 68.1237 80.3063 67.6306 80.477 67.1305C80.8479 66.0421 81.2063 64.9492 81.5738 63.8475C81.8088 63.7245 82.0867 63.6837 82.2955 63.5083C85.1701 64.7858 88.2009 64.8502 91.2532 64.718C91.4006 64.9766 91.389 65.2394 91.3948 65.4896C91.4343 67.1496 91.323 68.7926 90.7848 70.3807C90.6668 70.729 90.6793 71.0442 90.9526 71.3202C91.1797 71.5497 91.2798 71.8453 91.3674 72.1462C91.3861 72.2115 91.4044 72.2764 91.4243 72.3412C91.7188 73.304 92.0614 73.5601 93.0618 73.5851C93.4671 73.5951 93.872 73.6279 94.2773 73.6433C94.4119 73.6483 94.5497 73.6449 94.6814 73.6208C95.2719 73.5144 95.4675 73.0114 95.105 72.5291C94.8321 72.1658 94.4409 72.0332 94.0061 72.0066C93.8583 71.9974 93.71 72.0049 93.5261 72.0049C93.2931 71.1019 93.0215 70.2302 93.5344 69.3297C93.9102 68.6687 94.1644 67.9511 94.3654 67.217C94.3828 67.1521 94.389 67.0831 94.4659 67.0266C94.5207 66.99 94.5796 67.0336 94.6336 67.0702C95.9999 67.9981 97.3878 68.894 98.6972 69.9046C99.2852 70.3582 99.7213 70.9444 100.175 71.5172C100.445 71.8577 100.728 72.1882 101.078 72.4472C101.535 72.7852 102.017 73.0022 102.574 72.6464C102.637 72.606 102.729 72.6098 102.808 72.5961C103.118 72.5428 103.367 72.3982 103.527 72.1192C103.554 72.0722 103.578 72.0228 103.61 71.9795C104.066 71.3568 103.993 70.7095 103.408 70.2011C103.223 70.0406 103.012 69.9175 102.8 69.797C100.914 68.729 99.2047 67.4327 97.7325 65.8338C97.4393 65.515 97.1623 65.1837 96.9792 64.7875C97.0319 64.5642 97.1361 64.3796 97.2819 64.1743C97.5531 64.4786 97.5925 64.8748 97.8043 65.2227C98.0772 64.9384 97.997 64.5118 98.3068 64.2815C98.4763 64.4104 98.3849 64.7779 98.6943 64.7193C98.813 65.083 98.6096 65.3882 98.6519 65.7831C99.3263 65.2618 99.3259 64.4291 99.7071 63.8608C99.9476 63.8217 99.9584 64.0637 100.132 64.0849C100.302 64.0732 100.365 63.8953 100.49 63.8005C100.637 63.8142 100.664 64.0134 100.823 64.0113C100.943 63.9149 100.925 63.7735 100.934 63.6401L100.931 63.643C101.21 63.7648 101.339 64.0678 101.641 64.2483C101.905 63.8276 101.683 63.2559 102.081 62.9105C102.227 62.989 102.223 63.209 102.439 63.258C102.568 63.0402 102.495 62.7699 102.59 62.5442C102.717 62.6211 102.638 62.8414 102.852 62.8988C102.931 62.4823 102.814 62.0541 103.007 61.6521C103.288 61.7389 103.347 61.4641 103.487 61.3037C103.576 61.4168 103.483 61.5602 103.63 61.6961C103.838 61.4471 103.841 61.1357 103.902 60.8543C103.966 60.5545 103.998 60.2477 104.046 59.9322C104.128 60.0407 104.027 60.1958 104.2 60.286C104.392 60.0307 104.37 59.7397 104.338 59.4524C104.306 59.1739 104.256 58.8979 104.212 58.611C105.567 58.9029 105.885 58.6821 105.783 57.5164C106.088 57.2611 106.144 56.8953 106.132 56.5037C106.125 56.2992 106.166 56.1079 106.259 55.9175C106.441 55.5413 106.357 55.2877 105.995 55.0607C105.847 54.9676 105.687 54.8936 105.53 54.8146C105.116 54.6063 104.696 54.2775 104.377 53.9021C104.358 53.6414 104.282 53.4015 104.009 53.2456C103.778 53.1134 103.523 53.0058 103.33 52.7913C103.36 52.0729 102.745 51.6617 102.527 50.9949C102.382 51.1886 102.49 51.3187 102.474 51.4422C102.49 51.4605 102.538 51.4672 102.497 51.5096C102.49 51.4842 102.483 51.4622 102.477 51.4397C102.342 51.3649 102.27 51.2302 102.179 51.1155C101.849 50.6985 101.406 50.4578 100.915 50.2882C100.852 50.2665 100.785 50.2516 100.733 50.3243C100.72 50.4653 100.877 50.4619 100.929 50.5484C100.948 50.5567 100.966 50.5655 100.97 50.5675C100.967 50.5655 100.949 50.5555 100.932 50.5455C100.77 50.5372 100.625 50.437 100.47 50.4561C100.336 50.5089 100.481 50.6066 100.403 50.6819C100.039 50.5817 99.6615 50.4607 99.2694 50.4657C98.8803 50.4702 98.4916 50.5151 98.0838 50.5438C98.0851 50.7779 98.2694 50.782 98.4106 50.8278C98.3986 50.9275 98.3882 51.0157 98.3774 51.1042C97.6511 51.3636 96.9098 51.2655 96.1341 51.2285C96.2404 51.4618 96.4526 51.4164 96.5934 51.5062C96.6345 51.6301 96.4717 51.6638 96.4949 51.7598C95.7383 52.0147 94.975 52.1639 94.2395 52.4578C94.3537 52.6433 94.4737 52.6541 94.595 52.6624C94.6112 52.652 94.6274 52.642 94.6436 52.632C94.627 52.6416 94.6104 52.6512 94.5933 52.6603Z" fill="#F14D3D"/>
<path d="M81.9517 21.9161C81.9875 21.8429 82.0481 21.7884 82.1017 21.7311C82.2935 21.5249 82.4737 21.3095 82.6523 21.0925C82.7192 21.0114 82.7557 20.9154 82.7736 20.8131C82.7844 20.7529 82.7628 20.7026 82.713 20.6689C82.6598 20.6789 82.6224 20.7071 82.5963 20.7441C82.5203 20.8531 82.4106 20.9192 82.3018 20.9865C82.1498 21.08 81.985 21.1482 81.8226 21.2214C81.8176 21.2235 81.8097 21.2206 81.8002 21.2197C81.7993 21.1765 81.8288 21.147 81.8454 21.1141C81.985 20.8389 82.1237 20.5633 82.2574 20.2852C82.3338 20.1268 82.4061 19.9667 82.4791 19.8067C82.5003 19.7614 82.5149 19.7127 82.5323 19.6657C82.5439 19.6333 82.5452 19.603 82.5182 19.5772C82.4804 19.5618 82.4567 19.5838 82.4335 19.6071C82.3724 19.6691 82.3209 19.7397 82.274 19.8125C82.1781 19.9605 82.0473 20.0756 81.9193 20.1933C81.8438 20.2627 81.7636 20.3276 81.6847 20.3933C81.6606 20.4132 81.639 20.4386 81.5979 20.4481C81.6141 20.3937 81.6262 20.3442 81.6432 20.2964C81.6992 20.1397 81.7466 19.98 81.796 19.8212C81.8413 19.6753 81.884 19.5285 81.9181 19.3801C81.9409 19.2804 81.9771 19.1822 81.9683 19.0771C81.9654 19.0459 81.9634 19.0172 81.9264 19.0002C81.8745 19.0118 81.8587 19.0596 81.8413 19.1024C81.8047 19.1931 81.7732 19.2858 81.7375 19.3772C81.6972 19.4812 81.6257 19.5655 81.5564 19.6499C81.3961 19.8466 81.2325 20.0403 81.056 20.2228C81.0464 20.2324 81.0394 20.2453 81.0198 20.2444C81.0132 20.1634 81.0477 20.0881 81.0526 20.0087C81.0639 19.8424 81.0992 19.6786 81.1046 19.5107C81.1075 19.413 81.1299 19.3161 81.1266 19.2168C81.1249 19.1698 81.1087 19.1274 81.0975 19.0833C81.0904 19.0546 81.0659 19.0397 81.0315 19.0413C81.0028 19.065 80.9874 19.0962 80.9879 19.1353C80.9883 19.1789 80.9775 19.2222 80.9767 19.2654C80.975 19.3577 80.9551 19.4462 80.936 19.5356C80.9102 19.6558 80.8566 19.7639 80.8002 19.8707C80.6797 20.0973 80.5294 20.3047 80.3824 20.5138C80.3737 20.5259 80.3658 20.5417 80.3475 20.5458C80.3392 20.5213 80.3438 20.4964 80.3438 20.4718C80.3429 20.2789 80.3425 20.086 80.3421 19.8931C80.3421 19.7397 80.311 19.5884 80.3068 19.4354C80.3047 19.3569 80.2831 19.282 80.2732 19.2051C80.2644 19.1361 80.2512 19.0646 80.1872 19.0172C80.1482 19.0322 80.1278 19.06 80.1195 19.0983C80.1162 19.1141 80.1087 19.1295 80.1091 19.1452C80.1112 19.2533 80.0763 19.3577 80.0796 19.4662C80.0834 19.583 80.0705 19.7002 80.0589 19.8158C80.0464 19.936 80.0394 20.0578 80.0169 20.1763C79.987 20.3351 79.9542 20.4935 79.9085 20.6489C79.8404 20.8809 79.7673 21.1108 79.6689 21.332C79.6531 21.3669 79.6502 21.4076 79.617 21.4426C79.617 21.3719 79.617 21.307 79.617 21.2418C79.617 21.0859 79.6149 20.9295 79.6174 20.7737C79.6191 20.656 79.6087 20.5392 79.5942 20.424C79.5805 20.3105 79.5738 20.1962 79.5564 20.0835C79.5472 20.0228 79.5306 19.9634 79.5178 19.9031C79.5132 19.8811 79.5045 19.8645 79.4746 19.8611C79.4326 19.8869 79.4293 19.938 79.4227 19.9784C79.3994 20.1247 79.3707 20.2702 79.3579 20.4186C79.3508 20.4976 79.34 20.5774 79.3288 20.6564C79.3271 20.6676 79.3234 20.6789 79.323 20.6901C79.3188 20.8477 79.2873 21.0023 79.2756 21.1594C79.257 21.4064 79.1934 21.6438 79.0867 21.8699C78.9501 22.1601 78.7827 22.4316 78.6041 22.6968C78.3815 23.0265 78.1369 23.3399 77.8957 23.6555C77.7997 23.7806 77.7229 23.9186 77.632 24.0471C77.5684 24.1365 77.502 24.2238 77.4534 24.3231C77.4123 24.4067 77.3857 24.4915 77.3928 24.5863C77.3961 24.632 77.3878 24.6786 77.3728 24.7214C77.2756 25.002 77.156 25.2735 77.0339 25.5441C76.899 25.8439 76.7557 26.1399 76.6153 26.4371C76.4692 26.7464 76.3109 27.0495 76.1668 27.36C76.0996 27.5051 75.9899 27.5941 75.8633 27.6722C75.6511 27.8032 75.4243 27.9054 75.193 27.9965C74.9957 27.94 74.7993 27.8813 74.602 27.8269C74.4866 27.7949 74.3728 27.7516 74.2536 27.7712C74.1436 27.789 74.0323 27.7953 73.9235 27.8265C73.8271 27.8543 73.7295 27.8759 73.6386 27.9179C73.5813 27.9445 73.5173 27.9695 73.4762 28.0173C73.4027 28.1025 73.3018 28.1287 73.2046 28.1674C73.0904 28.2131 72.9658 28.2293 72.8562 28.2875C72.676 28.3831 72.6112 28.4929 72.6145 28.6949C72.6153 28.7506 72.6357 28.8059 72.6461 28.8575C72.6685 28.877 72.6876 28.8745 72.7092 28.8616C72.7304 28.8263 72.7524 28.7893 72.7769 28.7481C72.8471 28.7169 72.9231 28.7315 72.997 28.7373C73.0518 28.7419 73.1066 28.7494 73.1614 28.7481C73.2353 28.7469 73.3039 28.7806 73.3778 28.7764C73.3965 28.7751 73.4102 28.7901 73.4222 28.8055C73.5206 28.9319 73.661 28.973 73.8105 28.9967C73.9343 29.0163 74.0589 29.0321 74.1839 29.0404C74.2179 29.0425 74.247 29.067 74.2835 29.0649C74.3711 29.1672 74.4571 29.2678 74.5439 29.3684C74.5227 29.4112 74.4816 29.4266 74.4505 29.4503C74.1473 29.6814 73.8454 29.9147 73.5368 30.1387C73.1897 30.3907 72.845 30.6476 72.4799 30.875C72.3649 30.9465 72.2403 30.9955 72.1203 31.0558C71.9608 31.1361 71.808 31.2275 71.656 31.3198C71.4941 31.4179 71.3321 31.5173 71.178 31.6274C71.1278 31.664 71.0809 31.6412 71.0339 31.6283C70.8981 31.59 70.7632 31.5489 70.6278 31.5094C70.4966 31.4707 70.3653 31.4325 70.2345 31.3951C70.1797 31.3793 70.1249 31.363 70.0692 31.351C69.9455 31.3244 69.8412 31.3651 69.8242 31.5223C69.7623 31.5722 69.6701 31.5975 69.6394 31.6927C69.6722 31.7721 69.7428 31.8191 69.8072 31.8669C70.0144 32.0207 70.2353 32.1546 70.4646 32.2731C70.5725 32.3288 70.6847 32.3733 70.8022 32.4036C70.8325 32.4111 70.8662 32.4069 70.8981 32.4086C71.0725 32.419 71.2441 32.3907 71.4164 32.3699C71.5248 32.3566 71.6332 32.34 71.7412 32.3242C71.7877 32.3171 71.8313 32.288 71.8819 32.3055C71.8678 32.4547 71.8055 32.6077 71.9006 32.7478C71.9637 32.7636 72.0128 32.7524 72.0622 32.7275C72.2017 32.6576 72.3263 32.5662 72.4471 32.468C72.4696 32.4498 72.4878 32.4227 72.5219 32.4202C72.5427 32.4365 72.5476 32.4601 72.5547 32.4847C72.5929 32.6194 72.6398 32.7503 72.7204 32.8663C72.791 32.9682 72.8749 32.9781 72.9683 32.8958C73.0535 32.821 73.1182 32.7304 73.1755 32.6339C73.1851 32.6181 73.1946 32.6036 73.2071 32.5882C73.2561 32.688 73.3388 32.7358 73.4401 32.7549C73.482 32.7628 73.5211 32.7844 73.5667 32.7798C73.6947 32.7674 73.8089 32.7212 73.9168 32.653C74.002 32.5994 74.0771 32.5329 74.1527 32.466C74.215 32.4585 74.2769 32.4668 74.3383 32.466C74.3682 32.4656 74.3981 32.4664 74.4276 32.4668C74.6726 32.4685 74.7142 32.4535 74.8948 32.2889C74.9372 32.2502 74.982 32.2153 75.0302 32.1762C75.1324 32.1762 75.2378 32.1762 75.3433 32.1758C75.4006 32.1758 75.4575 32.1679 75.5123 32.1508C75.6266 32.1147 75.7059 32.0419 75.7324 31.9264C75.7565 31.9064 75.7802 31.911 75.8026 31.911C75.8878 31.911 75.9725 31.9085 76.0572 31.9122C76.1228 31.9151 76.1839 31.896 76.247 31.8848C76.2653 31.8819 76.2806 31.8711 76.2947 31.859C76.3612 31.8029 76.4081 31.7326 76.4334 31.6499C76.4442 31.615 76.4567 31.5813 76.4775 31.5414C76.5369 31.5605 76.6012 31.553 76.6635 31.5676C76.747 31.5871 76.8288 31.59 76.9131 31.5613C76.9592 31.5455 76.9858 31.5169 77.0099 31.4807C77.0676 31.3942 77.1041 31.2982 77.1382 31.2009C77.144 31.1835 77.1452 31.1647 77.1702 31.1494C77.2117 31.1435 77.2611 31.1307 77.3105 31.1307C77.3741 31.1307 77.431 31.1036 77.4924 31.0978C77.5319 31.0941 77.5626 31.0658 77.5892 31.0363C77.6428 30.976 77.6859 30.9091 77.7158 30.8338C77.7308 30.7964 77.7516 30.7681 77.7889 30.7482C77.8533 30.7137 77.9114 30.6696 77.965 30.6189C78.0447 30.5428 78.0925 30.453 78.0904 30.3399C78.0904 30.3312 78.0933 30.3225 78.0942 30.3171C78.1058 30.3046 78.1174 30.3038 78.1286 30.3054C78.2175 30.3196 78.3072 30.3179 78.3961 30.3171C78.6598 30.3146 78.9214 30.3557 79.1851 30.3453C79.2109 30.3445 79.2354 30.3499 79.2611 30.3632C79.3388 30.4464 79.4222 30.5278 79.5061 30.6089C79.5846 30.685 79.6797 30.727 79.7781 30.7611C79.9538 30.8222 80.1154 30.9103 80.2798 30.9947C80.4883 31.1024 80.698 31.208 80.9177 31.2915C80.9816 31.3161 81.0489 31.3198 81.1141 31.3073C81.1897 31.2932 81.2254 31.2317 81.2507 31.166C81.262 31.1365 81.2661 31.104 81.2736 31.0712C81.2952 31.0546 81.323 31.0579 81.3446 31.0658C81.4264 31.0961 81.5157 31.0961 81.5958 31.1319C81.6062 31.1365 81.6174 31.1394 81.6286 31.1419C81.7146 31.1593 81.7545 31.1277 81.759 31.0404C81.7615 30.9951 81.7528 30.949 81.7707 30.8962C81.8334 30.9207 81.8969 30.9336 81.9605 30.9473C82.0875 30.9748 82.2134 30.9714 82.3334 30.9315C82.463 30.8883 82.4875 30.8359 82.4542 30.6767C82.4335 30.5798 82.3712 30.4996 82.3126 30.4206C82.3056 30.4114 82.2964 30.404 82.2968 30.3915C82.3649 30.3524 82.4434 30.3649 82.5161 30.3462C82.5763 30.3308 82.6336 30.3113 82.6864 30.2776C82.7395 30.2439 82.7474 30.2127 82.7188 30.1574C82.6992 30.12 82.6698 30.0922 82.6378 30.066C82.622 30.0535 82.6062 30.0406 82.5904 30.0277C82.61 29.9887 82.6432 29.9666 82.6706 29.94C82.7341 29.8781 82.7794 29.8045 82.8114 29.7234C82.86 29.6004 82.7902 29.4765 82.6561 29.4457C82.632 29.4403 82.6046 29.444 82.5842 29.407C82.6374 29.3073 82.676 29.1938 82.6486 29.0732C82.6353 29.0146 82.6224 28.9527 82.585 28.9007C82.5684 28.8774 82.5489 28.86 82.524 28.8429C82.4621 28.8404 82.3982 28.8363 82.3355 28.8562C82.3205 28.8612 82.3039 28.8645 82.2881 28.8641C82.1573 28.8595 82.0261 28.8712 81.8977 28.8878C81.7678 28.9044 81.6378 28.9057 81.5082 28.9157C81.3853 28.9252 81.2632 28.9473 81.1394 28.9481C81.0136 28.9489 80.8869 28.9564 80.7628 28.971C80.5875 28.9913 80.4114 28.993 80.2362 29.0075C80.1722 29.0129 80.1108 29.0312 80.0456 29.0321C79.9721 29.0329 79.8986 29.0333 79.8313 29.0021C79.7619 28.9693 79.6839 28.9568 79.6129 28.9103C79.7009 28.7635 79.6477 28.6267 79.5846 28.485C79.7233 28.4164 79.8774 28.3894 80.0119 28.3307C80.0742 28.2206 80.0593 28.1158 80.0302 28.011C80.0688 27.9624 80.1278 27.9491 80.1743 27.9171C80.2707 27.8514 80.367 27.7861 80.448 27.7009C80.4609 27.6876 80.4733 27.6743 80.4845 27.6598C80.5489 27.5754 80.5394 27.5047 80.4546 27.4415C80.4422 27.4323 80.4276 27.4253 80.4131 27.4166C80.5082 27.3467 80.6012 27.2769 80.6963 27.2103C80.7458 27.1763 80.7848 27.1314 80.8309 27.0939C80.8903 27.0457 80.9023 26.9834 80.9011 26.9106C80.8986 26.7892 80.8575 26.6782 80.8164 26.5635C80.8512 26.5165 80.9106 26.5044 80.9575 26.4741C81.0493 26.4151 81.1428 26.3585 81.2267 26.287C81.3018 26.2226 81.3193 26.1444 81.301 26.0521C81.2877 25.9869 81.2611 25.9258 81.2379 25.858C81.2894 25.8148 81.3425 25.7682 81.3969 25.7241C81.5149 25.6293 81.6232 25.525 81.7217 25.4107C81.7889 25.3325 81.7997 25.2415 81.7732 25.1409C81.7528 25.0631 81.7246 24.9891 81.6909 24.9126C81.8039 24.8648 81.9036 24.8004 81.9796 24.7019C82.0485 24.6121 82.0518 24.5626 81.9816 24.4757C81.9289 24.4104 81.8571 24.3697 81.7852 24.3289C81.7736 24.3223 81.7586 24.3202 81.7499 24.2957C81.7881 24.25 81.8296 24.2001 81.872 24.1506C81.9285 24.0845 81.9783 24.0142 82.019 23.9369C82.0394 23.8983 82.0344 23.8675 82.0095 23.8355C81.9791 23.7968 81.9409 23.7685 81.8965 23.7482C81.818 23.7116 81.7408 23.6721 81.6536 23.658C81.6419 23.6563 81.6336 23.6476 81.6311 23.6293C81.7109 23.5732 81.7939 23.5183 81.8732 23.458C82.0082 23.3557 82.1432 23.253 82.2453 23.1154C82.2881 23.0577 82.323 22.9965 82.3234 22.9217C82.3238 22.8348 82.2927 22.8007 82.2063 22.7937C82.1951 22.7928 82.1843 22.792 82.1664 22.7908C82.2022 22.7276 82.2383 22.6698 82.2682 22.6095C82.2993 22.5459 82.328 22.481 82.3259 22.4075C82.3242 22.3538 82.3242 22.3513 82.2802 22.3035C82.2304 22.2898 82.1777 22.299 82.1195 22.3019C82.1523 22.2287 82.1972 22.1676 82.2229 22.0969C82.2333 22.0686 82.2412 22.0404 82.2487 22.0117C82.2599 21.9697 82.2595 21.9273 82.2213 21.899C82.1822 21.8699 82.1403 21.8496 82.0879 21.8728C82.0443 21.8924 81.9937 21.8915 81.9513 21.9152C81.948 21.9173 81.9447 21.9194 81.9492 21.9165C81.9443 21.9177 81.948 21.9169 81.9517 21.9161Z" fill="#8D76AA"/>
</svg>
